<svg width="800" height="1200" viewBox="0 0 800 1200" xmlns="http://www.w3.org/2000/svg">
  <!-- Border Frame -->
  <rect x="20" y="20" width="760" height="1160" fill="none" stroke="#f0c420" stroke-width="2" rx="10" />
  
  <!-- Decorative Corner Elements -->
  <path d="M20,80 L80,20" stroke="#f0c420" stroke-width="2" />
  <path d="M720,20 L780,80" stroke="#f0c420" stroke-width="2" />
  <path d="M20,1120 L80,1180" stroke="#f0c420" stroke-width="2" />
  <path d="M720,1180 L780,1120" stroke="#f0c420" stroke-width="2" />
  
  <!-- Zodiac Symbols Border -->
  <circle cx="400" cy="600" r="280" fill="none" stroke="#f0c420" stroke-width="1" stroke-dasharray="4 4" />
  
  <!-- Star Constellation Patterns (Top) -->
  <circle cx="150" cy="150" r="1.5" fill="#f0c420" />
  <circle cx="160" cy="165" r="1" fill="#f0c420" />
  <circle cx="180" cy="140" r="2" fill="#f0c420" />
  <circle cx="200" cy="160" r="1.5" fill="#f0c420" />
  <line x1="150" y1="150" x2="180" y2="140" stroke="#f0c420" stroke-width="0.5" stroke-opacity="0.6" />
  <line x1="180" y1="140" x2="200" y2="160" stroke="#f0c420" stroke-width="0.5" stroke-opacity="0.6" />
  
  <circle cx="650" cy="150" r="1.5" fill="#f0c420" />
  <circle cx="640" cy="165" r="1" fill="#f0c420" />
  <circle cx="620" cy="140" r="2" fill="#f0c420" />
  <circle cx="600" cy="160" r="1.5" fill="#f0c420" />
  <line x1="650" y1="150" x2="620" y2="140" stroke="#f0c420" stroke-width="0.5" stroke-opacity="0.6" />
  <line x1="620" y1="140" x2="600" y2="160" stroke="#f0c420" stroke-width="0.5" stroke-opacity="0.6" />
  
  <!-- Star Constellation Patterns (Bottom) -->
  <circle cx="150" cy="1050" r="1.5" fill="#f0c420" />
  <circle cx="160" cy="1035" r="1" fill="#f0c420" />
  <circle cx="180" cy="1060" r="2" fill="#f0c420" />
  <circle cx="200" cy="1040" r="1.5" fill="#f0c420" />
  <line x1="150" y1="1050" x2="180" y2="1060" stroke="#f0c420" stroke-width="0.5" stroke-opacity="0.6" />
  <line x1="180" y1="1060" x2="200" y2="1040" stroke="#f0c420" stroke-width="0.5" stroke-opacity="0.6" />
  
  <circle cx="650" cy="1050" r="1.5" fill="#f0c420" />
  <circle cx="640" cy="1035" r="1" fill="#f0c420" />
  <circle cx="620" cy="1060" r="2" fill="#f0c420" />
  <circle cx="600" cy="1040" r="1.5" fill="#f0c420" />
  <line x1="650" y1="1050" x2="620" y2="1060" stroke="#f0c420" stroke-width="0.5" stroke-opacity="0.6" />
  <line x1="620" y1="1060" x2="600" y2="1040" stroke="#f0c420" stroke-width="0.5" stroke-opacity="0.6" />
  
  <!-- Brand Name -->
  <text x="400" y="1150" font-family="serif" font-size="24" font-weight="bold" fill="#f0c420" text-anchor="middle">ASTROBOOK</text>
</svg> 