<svg xmlns="http://www.w3.org/2000/svg" xmlns:xlink="http://www.w3.org/1999/xlink" width="50" zoomAndPan="magnify" viewBox="0 0 37.92 46.079998" height="50" preserveAspectRatio="xMidYMid meet" version="1.0"><defs><clipPath id="e1b8c55d1e"><path d="M 0.332031 8 L 37 8 L 37 29.207031 L 0.332031 29.207031 Z M 0.332031 8 " clip-rule="nonzero"/></clipPath></defs><g clip-path="url(#e1b8c55d1e)"><path fill="#000000" d="M 8.695312 8 C 7.539062 8 7.066406 8.566406 6.386719 9.113281 C 5.707031 9.660156 4.988281 10.335938 4.285156 11 C 3.578125 11.660156 2.882812 12.308594 2.328125 12.753906 C 1.773438 13.199219 1.1875 13.296875 1.636719 13.296875 C 1.460938 13.292969 1.292969 13.324219 1.132812 13.390625 C 0.96875 13.457031 0.824219 13.550781 0.703125 13.675781 C 0.578125 13.800781 0.480469 13.945312 0.414062 14.109375 C 0.347656 14.273438 0.3125 14.441406 0.3125 14.621094 C 0.3125 14.796875 0.347656 14.964844 0.414062 15.128906 C 0.480469 15.292969 0.578125 15.4375 0.703125 15.5625 C 0.824219 15.6875 0.96875 15.78125 1.132812 15.847656 C 1.292969 15.914062 1.460938 15.945312 1.636719 15.941406 C 2.789062 15.941406 3.265625 15.378906 3.949219 14.832031 C 4.628906 14.285156 5.34375 13.605469 6.050781 12.945312 C 6.757812 12.28125 7.453125 11.636719 8.007812 11.191406 C 8.234375 11.007812 8.4375 10.910156 8.601562 10.828125 C 8.640625 10.871094 8.652344 10.859375 8.699219 10.925781 C 8.972656 11.3125 9.3125 11.941406 9.667969 12.601562 C 10.019531 13.265625 10.382812 13.957031 10.816406 14.566406 C 11.25 15.175781 11.777344 15.941406 12.929688 15.941406 C 14.085938 15.941406 14.5625 15.378906 15.242188 14.832031 C 15.925781 14.285156 16.644531 13.605469 17.351562 12.945312 C 18.058594 12.28125 18.746094 11.636719 19.300781 11.191406 C 19.535156 11.003906 19.738281 10.90625 19.902344 10.824219 C 19.945312 10.863281 19.953125 10.859375 20 10.925781 C 20.273438 11.308594 20.613281 11.941406 20.96875 12.601562 C 21.320312 13.265625 21.679688 13.957031 22.113281 14.566406 C 22.546875 15.175781 23.078125 15.941406 24.234375 15.941406 C 25.386719 15.941406 25.863281 15.378906 26.542969 14.832031 C 27.226562 14.285156 27.941406 13.605469 28.648438 12.945312 C 29.355469 12.28125 30.050781 11.636719 30.605469 11.191406 C 30.832031 11.007812 31.035156 10.910156 31.199219 10.828125 C 31.238281 10.871094 31.25 10.859375 31.296875 10.925781 C 31.570312 11.3125 31.910156 11.941406 32.265625 12.601562 C 32.617188 13.265625 32.980469 13.957031 33.414062 14.566406 C 33.847656 15.175781 34.375 15.941406 35.527344 15.941406 C 35.699219 15.949219 35.867188 15.921875 36.03125 15.863281 C 36.195312 15.800781 36.339844 15.710938 36.464844 15.59375 C 36.59375 15.472656 36.691406 15.335938 36.765625 15.175781 C 36.839844 15.015625 36.878906 14.847656 36.886719 14.671875 C 36.890625 14.496094 36.867188 14.328125 36.804688 14.164062 C 36.746094 13.996094 36.65625 13.851562 36.542969 13.722656 C 36.425781 13.59375 36.285156 13.492188 36.128906 13.417969 C 35.972656 13.34375 35.808594 13.304688 35.636719 13.296875 C 35.8125 13.308594 35.746094 13.324219 35.527344 13.015625 C 35.253906 12.632812 34.910156 12.003906 34.554688 11.339844 C 34.203125 10.679688 33.84375 9.984375 33.410156 9.375 C 32.976562 8.765625 32.445312 8 31.292969 8 C 30.136719 8 29.664062 8.566406 28.984375 9.113281 C 28.304688 9.660156 27.585938 10.335938 26.878906 11 C 26.175781 11.660156 25.480469 12.308594 24.925781 12.753906 C 24.695312 12.9375 24.488281 13.035156 24.324219 13.121094 C 24.285156 13.078125 24.277344 13.085938 24.226562 13.015625 C 23.953125 12.632812 23.613281 12.003906 23.257812 11.339844 C 22.90625 10.679688 22.546875 9.984375 22.113281 9.375 C 21.679688 8.765625 21.148438 8 19.996094 8 C 18.839844 8 18.367188 8.566406 17.6875 9.113281 C 17.007812 9.660156 16.285156 10.335938 15.578125 11 C 14.875 11.660156 14.179688 12.308594 13.625 12.753906 C 13.394531 12.9375 13.191406 13.03125 13.027344 13.113281 C 12.988281 13.074219 12.980469 13.082031 12.929688 13.015625 C 12.660156 12.632812 12.3125 12.003906 11.957031 11.339844 C 11.605469 10.679688 11.246094 9.984375 10.8125 9.375 C 10.378906 8.765625 9.851562 8 8.695312 8 Z M 8.695312 21.191406 C 7.539062 21.191406 7.066406 21.757812 6.386719 22.304688 C 5.707031 22.851562 4.988281 23.527344 4.285156 24.191406 C 3.578125 24.851562 2.882812 25.496094 2.328125 25.941406 C 1.773438 26.390625 1.1875 26.484375 1.636719 26.484375 C 1.460938 26.484375 1.292969 26.515625 1.132812 26.582031 C 0.96875 26.648438 0.824219 26.742188 0.703125 26.867188 C 0.578125 26.992188 0.480469 27.136719 0.414062 27.300781 C 0.347656 27.460938 0.3125 27.632812 0.3125 27.808594 C 0.3125 27.988281 0.347656 28.15625 0.414062 28.320312 C 0.480469 28.484375 0.578125 28.628906 0.703125 28.753906 C 0.824219 28.878906 0.96875 28.972656 1.132812 29.039062 C 1.292969 29.105469 1.460938 29.136719 1.636719 29.132812 C 2.789062 29.132812 3.265625 28.570312 3.949219 28.023438 C 4.628906 27.476562 5.34375 26.796875 6.050781 26.132812 C 6.757812 25.472656 7.453125 24.828125 8.007812 24.382812 C 8.234375 24.199219 8.4375 24.101562 8.601562 24.019531 C 8.640625 24.058594 8.652344 24.050781 8.699219 24.117188 C 8.972656 24.5 9.3125 25.132812 9.667969 25.792969 C 10.019531 26.457031 10.382812 27.148438 10.816406 27.757812 C 11.25 28.367188 11.777344 29.132812 12.929688 29.132812 C 14.085938 29.132812 14.5625 28.570312 15.242188 28.023438 C 15.925781 27.476562 16.644531 26.796875 17.351562 26.132812 C 18.058594 25.472656 18.746094 24.828125 19.300781 24.382812 C 19.535156 24.195312 19.738281 24.097656 19.902344 24.015625 C 19.945312 24.054688 19.953125 24.050781 20 24.117188 C 20.273438 24.5 20.613281 25.132812 20.96875 25.792969 C 21.320312 26.457031 21.679688 27.148438 22.113281 27.757812 C 22.546875 28.367188 23.078125 29.132812 24.234375 29.132812 C 25.386719 29.132812 25.863281 28.570312 26.542969 28.023438 C 27.226562 27.476562 27.941406 26.796875 28.648438 26.132812 C 29.355469 25.472656 30.050781 24.828125 30.605469 24.382812 C 30.832031 24.199219 31.035156 24.101562 31.199219 24.019531 C 31.238281 24.058594 31.25 24.050781 31.296875 24.117188 C 31.570312 24.5 31.910156 25.132812 32.265625 25.792969 C 32.617188 26.457031 32.980469 27.148438 33.414062 27.757812 C 33.847656 28.367188 34.375 29.132812 35.527344 29.132812 C 35.699219 29.140625 35.867188 29.113281 36.03125 29.054688 C 36.195312 28.992188 36.339844 28.902344 36.464844 28.785156 C 36.59375 28.664062 36.691406 28.527344 36.765625 28.367188 C 36.839844 28.207031 36.878906 28.039062 36.886719 27.863281 C 36.890625 27.6875 36.867188 27.519531 36.804688 27.355469 C 36.746094 27.1875 36.65625 27.042969 36.542969 26.914062 C 36.425781 26.785156 36.285156 26.683594 36.128906 26.609375 C 35.972656 26.535156 35.808594 26.492188 35.636719 26.484375 C 35.8125 26.5 35.746094 26.515625 35.527344 26.207031 C 35.253906 25.824219 34.910156 25.195312 34.554688 24.53125 C 34.203125 23.871094 33.84375 23.175781 33.410156 22.566406 C 32.976562 21.957031 32.445312 21.191406 31.292969 21.191406 C 30.136719 21.191406 29.664062 21.757812 28.984375 22.304688 C 28.304688 22.851562 27.585938 23.527344 26.878906 24.191406 C 26.175781 24.851562 25.480469 25.496094 24.925781 25.941406 C 24.695312 26.128906 24.488281 26.226562 24.324219 26.308594 C 24.285156 26.269531 24.277344 26.277344 24.226562 26.207031 C 23.953125 25.824219 23.613281 25.195312 23.257812 24.53125 C 22.90625 23.871094 22.546875 23.175781 22.113281 22.566406 C 21.679688 21.957031 21.148438 21.191406 19.996094 21.191406 C 18.839844 21.191406 18.367188 21.757812 17.6875 22.304688 C 17.007812 22.851562 16.285156 23.527344 15.578125 24.191406 C 14.875 24.851562 14.179688 25.496094 13.625 25.941406 C 13.394531 26.125 13.191406 26.222656 13.027344 26.304688 C 12.988281 26.265625 12.980469 26.273438 12.929688 26.207031 C 12.660156 25.824219 12.3125 25.195312 11.957031 24.53125 C 11.605469 23.871094 11.246094 23.175781 10.8125 22.566406 C 10.378906 21.957031 9.851562 21.191406 8.695312 21.191406 Z M 8.695312 21.191406 " fill-opacity="1" fill-rule="nonzero"/></g></svg>