<svg xmlns="http://www.w3.org/2000/svg" xmlns:xlink="http://www.w3.org/1999/xlink" width="50" zoomAndPan="magnify" viewBox="0 0 37.92 46.079998" height="50" preserveAspectRatio="xMidYMid meet" version="1.2"><defs><clipPath id="16b573a05e"><path d="M 17 3.308594 L 37 3.308594 L 37 33.457031 L 17 33.457031 Z M 17 3.308594 "/></clipPath><clipPath id="8750aeba26"><path d="M 1 3.308594 L 20 3.308594 L 20 33.457031 L 1 33.457031 Z M 1 3.308594 "/></clipPath></defs><g id="0dfd407661"><g clip-rule="nonzero" clip-path="url(#16b573a05e)"><path style=" stroke:none;fill-rule:nonzero;fill:#1a1a1a;fill-opacity:1;" d="M 18.71875 33.460938 C 18.695312 33.460938 18.671875 33.457031 18.644531 33.457031 C 17.992188 33.417969 17.496094 32.847656 17.539062 32.1875 C 18.0625 23.542969 19.367188 16.675781 21.417969 11.777344 C 23.648438 6.445312 26.285156 4.628906 28.105469 4.046875 C 30.410156 3.3125 32.746094 4.089844 34.355469 6.128906 C 36.257812 8.542969 37.085938 12.867188 34.644531 17.085938 C 34.3125 17.65625 33.589844 17.847656 33.027344 17.515625 C 32.460938 17.179688 32.273438 16.445312 32.601562 15.875 C 34.476562 12.636719 33.90625 9.398438 32.507812 7.625 C 31.519531 6.371094 30.171875 5.898438 28.816406 6.332031 C 26.917969 6.941406 25.0625 9.207031 23.597656 12.710938 C 21.652344 17.359375 20.40625 23.960938 19.898438 32.335938 C 19.859375 32.96875 19.339844 33.460938 18.71875 33.460938 "/></g><g clip-rule="nonzero" clip-path="url(#8750aeba26)"><path style=" stroke:none;fill-rule:nonzero;fill:#1a1a1a;fill-opacity:1;" d="M 18.71875 33.460938 C 18.097656 33.460938 17.574219 32.96875 17.539062 32.335938 C 17.027344 23.960938 15.785156 17.359375 13.839844 12.710938 C 12.375 9.207031 10.519531 6.941406 8.617188 6.332031 C 7.261719 5.898438 5.917969 6.371094 4.929688 7.625 C 3.53125 9.398438 2.960938 12.636719 4.835938 15.875 C 5.164062 16.445312 4.976562 17.179688 4.410156 17.515625 C 3.847656 17.847656 3.121094 17.65625 2.792969 17.085938 C 0.351562 12.867188 1.179688 8.542969 3.082031 6.128906 C 4.6875 4.089844 7.027344 3.3125 9.332031 4.046875 C 11.152344 4.628906 13.789062 6.445312 16.019531 11.777344 C 18.070312 16.675781 19.375 23.542969 19.898438 32.1875 C 19.941406 32.847656 19.445312 33.417969 18.792969 33.457031 C 18.765625 33.457031 18.742188 33.460938 18.71875 33.460938 "/></g></g></svg>