<svg xmlns="http://www.w3.org/2000/svg" xmlns:xlink="http://www.w3.org/1999/xlink" width="50" zoomAndPan="magnify" viewBox="0 0 37.92 46.079998" height="50" preserveAspectRatio="xMidYMid meet" version="1.2"><defs><clipPath id="5e65533b0c"><path d="M 0.332031 7 L 17 7 L 17 23 L 0.332031 23 Z M 0.332031 7 "/></clipPath><clipPath id="755a264cf3"><path d="M 0.332031 23 L 37 23 L 37 33.734375 L 0.332031 33.734375 Z M 0.332031 23 "/></clipPath></defs><g id="15b1061cff"><path style=" stroke:none;fill-rule:nonzero;fill:#000000;fill-opacity:1;" d="M 2.894531 13.304688 C 2.648438 13.304688 2.394531 13.242188 2.164062 13.113281 C 1.460938 12.710938 1.214844 11.816406 1.621094 11.117188 C 3.574219 7.722656 7.007812 6.15625 10.425781 4.964844 C 16.519531 2.847656 23.894531 3.144531 29.667969 5.746094 C 31.683594 6.652344 34.515625 8.226562 36.558594 10.59375 C 37.089844 11.203125 37.019531 12.128906 36.402344 12.65625 C 35.789062 13.179688 34.859375 13.113281 34.328125 12.5 C 33.007812 10.972656 30.921875 9.519531 28.457031 8.410156 C 23.339844 6.109375 16.804688 5.847656 11.398438 7.726562 C 8.714844 8.660156 5.722656 9.882812 4.171875 12.570312 C 3.902344 13.042969 3.40625 13.304688 2.894531 13.304688 Z M 2.894531 13.304688 "/><g clip-rule="nonzero" clip-path="url(#5e65533b0c)"><path style=" stroke:none;fill-rule:nonzero;fill:#000000;fill-opacity:1;" d="M 8.351562 22.910156 C 4.027344 22.910156 0.511719 19.410156 0.511719 15.113281 C 0.511719 10.816406 4.027344 7.316406 8.351562 7.316406 C 12.675781 7.316406 16.195312 10.816406 16.195312 15.113281 C 16.195312 19.410156 12.675781 22.910156 8.351562 22.910156 Z M 8.351562 10.242188 C 5.652344 10.242188 3.453125 12.429688 3.453125 15.113281 C 3.453125 17.796875 5.652344 19.984375 8.351562 19.984375 C 11.054688 19.984375 13.25 17.796875 13.25 15.113281 C 13.25 12.429688 11.054688 10.242188 8.351562 10.242188 Z M 8.351562 10.242188 "/></g><g clip-rule="nonzero" clip-path="url(#755a264cf3)"><path style=" stroke:none;fill-rule:nonzero;fill:#000000;fill-opacity:1;" d="M 18.398438 33.734375 C 14.6875 33.734375 10.976562 33 7.757812 31.550781 C 5.742188 30.644531 2.910156 29.070312 0.867188 26.703125 C 0.335938 26.089844 0.40625 25.167969 1.023438 24.640625 C 1.640625 24.113281 2.566406 24.183594 3.097656 24.796875 C 4.417969 26.324219 6.503906 27.777344 8.972656 28.886719 C 14.085938 31.1875 20.621094 31.449219 26.027344 29.570312 C 28.710938 28.636719 31.703125 27.414062 33.253906 24.726562 C 33.65625 24.023438 34.554688 23.78125 35.261719 24.183594 C 35.96875 24.585938 36.210938 25.480469 35.808594 26.179688 C 33.851562 29.574219 30.417969 31.140625 27 32.328125 C 24.300781 33.269531 21.351562 33.734375 18.398438 33.734375 Z M 18.398438 33.734375 "/></g><path style=" stroke:none;fill-rule:nonzero;fill:#000000;fill-opacity:1;" d="M 29.074219 29.976562 C 24.75 29.976562 21.234375 26.480469 21.234375 22.183594 C 21.234375 17.882812 24.75 14.386719 29.074219 14.386719 C 33.398438 14.386719 36.914062 17.882812 36.914062 22.183594 C 36.914062 26.480469 33.398438 29.976562 29.074219 29.976562 Z M 29.074219 17.3125 C 26.375 17.3125 24.175781 19.496094 24.175781 22.183594 C 24.175781 24.867188 26.375 27.050781 29.074219 27.050781 C 31.777344 27.050781 33.972656 24.867188 33.972656 22.183594 C 33.972656 19.496094 31.777344 17.3125 29.074219 17.3125 Z M 29.074219 17.3125 "/></g></svg>