<svg xmlns="http://www.w3.org/2000/svg" xmlns:xlink="http://www.w3.org/1999/xlink" width="50" zoomAndPan="magnify" viewBox="0 0 37.92 46.079998" height="50" preserveAspectRatio="xMidYMid meet" version="1.2"><defs><clipPath id="c3c51c2bab"><path d="M 6 0 L 35.328125 0 L 35.328125 36.765625 L 6 36.765625 Z M 6 0 "/></clipPath></defs><g id="e952119bcb"><g clip-rule="nonzero" clip-path="url(#c3c51c2bab)"><path style=" stroke:none;fill-rule:nonzero;fill:#000000;fill-opacity:1;" d="M 29.886719 21.960938 C 27.011719 21.960938 24.585938 24.304688 24.585938 27.082031 L 24.585938 27.464844 C 23.652344 26.566406 23.050781 25.394531 23.050781 24.195312 L 23.050781 6.144531 C 23.050781 2.867188 19.851562 0.667969 16.863281 0.667969 C 15.066406 0.667969 13.464844 1.382812 12.347656 2.5 C 11.300781 1.429688 9.785156 0.765625 8.027344 0.765625 C 7.179688 0.765625 6.492188 1.449219 6.492188 2.292969 C 6.492188 3.136719 7.179688 3.820312 8.027344 3.820312 C 9.390625 3.820312 10.769531 4.617188 10.769531 6.144531 L 10.769531 27.621094 C 10.769531 28.464844 11.457031 29.148438 12.304688 29.148438 C 13.152344 29.148438 13.839844 28.464844 13.839844 27.621094 L 13.839844 6.144531 C 13.839844 4.699219 15.402344 3.722656 16.863281 3.722656 C 18.339844 3.722656 19.980469 4.71875 19.980469 6.144531 L 19.980469 24.5625 C 19.980469 24.644531 20.015625 24.71875 20.027344 24.792969 C 20.265625 27.441406 22.011719 29.824219 24.449219 31.136719 C 24.09375 32.519531 23.078125 33.730469 21.621094 33.730469 L 19.980469 33.730469 C 19.132812 33.730469 18.445312 34.417969 18.445312 35.257812 C 18.445312 36.105469 19.132812 36.789062 19.980469 36.789062 L 21.621094 36.789062 C 24.359375 36.789062 26.613281 34.851562 27.378906 32.109375 C 27.785156 32.171875 28.195312 32.199219 28.617188 32.199219 L 30.019531 32.199219 C 32.84375 32.199219 35.140625 29.890625 35.140625 27.054688 C 35.144531 24.292969 32.738281 21.960938 29.886719 21.960938 Z M 30.019531 29.148438 L 28.617188 29.148438 C 28.292969 29.148438 27.972656 29.117188 27.65625 29.054688 L 27.65625 27.078125 C 27.65625 25.980469 28.699219 25.015625 29.886719 25.015625 C 31.03125 25.015625 32.074219 25.988281 32.074219 27.050781 C 32.074219 28.210938 31.152344 29.148438 30.019531 29.148438 Z M 30.019531 29.148438 "/></g></g></svg>