<svg xmlns="http://www.w3.org/2000/svg" xmlns:xlink="http://www.w3.org/1999/xlink" width="50" zoomAndPan="magnify" viewBox="0 0 37.92 46.079998" height="50" preserveAspectRatio="xMidYMid meet" version="1.0"><defs><clipPath id="ef4cabf305"><path d="M 1.847656 0 L 35.671875 0 L 35.671875 36.765625 L 1.847656 36.765625 Z M 1.847656 0 " clip-rule="nonzero"/></clipPath></defs><g clip-path="url(#ef4cabf305)"><path fill="#000000" d="M 20.296875 0 C 17.246094 0 14.515625 1.027344 12.578125 2.929688 C 10.636719 4.832031 9.542969 7.570312 9.542969 10.722656 C 9.542969 13.101562 10.382812 15.183594 11.132812 17.222656 C 10.410156 16.984375 9.621094 16.851562 8.777344 16.851562 C 6.601562 16.851562 4.773438 17.71875 3.59375 19.042969 C 2.417969 20.363281 1.863281 22.0625 1.863281 23.746094 C 1.863281 25.425781 2.417969 27.128906 3.59375 28.449219 C 4.773438 29.769531 6.601562 30.636719 8.777344 30.636719 C 10.953125 30.636719 12.78125 29.769531 13.957031 28.449219 C 15.066406 27.203125 15.605469 25.617188 15.664062 24.03125 C 15.683594 23.9375 15.691406 23.839844 15.6875 23.746094 C 15.6875 20.835938 14.835938 18.394531 14.058594 16.28125 C 13.285156 14.164062 12.617188 12.378906 12.617188 10.722656 C 12.617188 8.257812 13.417969 6.402344 14.730469 5.113281 C 16.046875 3.824219 17.925781 3.0625 20.296875 3.0625 C 22.667969 3.0625 24.546875 3.824219 25.863281 5.113281 C 27.175781 6.402344 27.976562 8.257812 27.976562 10.722656 C 27.976562 12.976562 26.625 15.566406 25.070312 18.636719 C 23.515625 21.710938 21.832031 25.285156 21.832031 29.613281 C 21.832031 33.519531 24.816406 36.765625 28.699219 36.765625 C 30.621094 36.765625 32.429688 36.015625 33.691406 34.644531 C 34.957031 33.273438 35.65625 31.332031 35.65625 29.105469 C 35.660156 28.902344 35.625 28.703125 35.546875 28.511719 C 35.46875 28.324219 35.359375 28.15625 35.214844 28.007812 C 35.070312 27.863281 34.90625 27.75 34.714844 27.671875 C 34.523438 27.59375 34.328125 27.550781 34.121094 27.550781 C 33.917969 27.550781 33.71875 27.59375 33.527344 27.671875 C 33.339844 27.75 33.171875 27.863281 33.027344 28.007812 C 32.882812 28.15625 32.773438 28.324219 32.695312 28.511719 C 32.621094 28.703125 32.582031 28.902344 32.585938 29.105469 C 32.585938 30.707031 32.109375 31.832031 31.433594 32.566406 C 30.757812 33.304688 29.851562 33.703125 28.699219 33.703125 C 26.441406 33.703125 24.90625 32.074219 24.90625 29.613281 C 24.90625 26.082031 26.292969 23.019531 27.8125 20.015625 C 29.332031 17.011719 31.050781 14.089844 31.050781 10.722656 C 31.050781 7.570312 29.957031 4.832031 28.015625 2.929688 C 26.078125 1.027344 23.347656 0 20.296875 0 Z M 8.777344 19.914062 C 10.183594 19.914062 11.042969 20.386719 11.660156 21.074219 C 12.273438 21.765625 12.617188 22.746094 12.617188 23.746094 C 12.617188 24.746094 12.273438 25.722656 11.660156 26.414062 C 11.042969 27.101562 10.183594 27.574219 8.777344 27.574219 C 7.367188 27.574219 6.507812 27.101562 5.894531 26.414062 C 5.277344 25.722656 4.9375 24.746094 4.9375 23.746094 C 4.9375 22.746094 5.277344 21.765625 5.894531 21.074219 C 6.507812 20.386719 7.367188 19.914062 8.777344 19.914062 Z M 8.777344 19.914062 " fill-opacity="1" fill-rule="nonzero"/></g></svg>