<svg xmlns="http://www.w3.org/2000/svg" xmlns:xlink="http://www.w3.org/1999/xlink" width="50" zoomAndPan="magnify" viewBox="0 0 37.92 46.079998" height="50" preserveAspectRatio="xMidYMid meet" version="1.2"><defs><clipPath id="f8b07014e9"><path d="M 0.332031 3.953125 L 37 3.953125 L 37 32.628906 L 0.332031 32.628906 Z M 0.332031 3.953125 "/></clipPath></defs><g id="7e3806b64e"><g clip-rule="nonzero" clip-path="url(#f8b07014e9)"><path style=" stroke:none;fill-rule:nonzero;fill:#000000;fill-opacity:1;" d="M 18.585938 3.960938 C 11.152344 3.960938 5.546875 8.730469 5.546875 15.050781 C 5.546875 17.898438 6.441406 20.285156 8.210938 22.175781 L 1.636719 22.175781 C 0.914062 22.175781 0.332031 22.757812 0.332031 23.472656 C 0.332031 24.1875 0.914062 24.769531 1.636719 24.769531 L 12.066406 24.769531 C 12.664062 24.769531 13.183594 24.367188 13.328125 23.792969 C 13.476562 23.214844 13.207031 22.617188 12.683594 22.335938 C 9.632812 20.695312 8.15625 18.3125 8.15625 15.050781 C 8.15625 10.207031 12.640625 6.550781 18.585938 6.550781 C 24.53125 6.550781 29.015625 10.207031 29.015625 15.050781 C 29.015625 18.316406 27.535156 20.699219 24.488281 22.335938 C 23.960938 22.617188 23.691406 23.214844 23.839844 23.792969 C 23.984375 24.367188 24.507812 24.769531 25.101562 24.769531 L 35.535156 24.769531 C 36.253906 24.769531 36.835938 24.1875 36.835938 23.472656 C 36.835938 22.757812 36.253906 22.175781 35.535156 22.175781 L 28.957031 22.175781 C 30.726562 20.285156 31.621094 17.898438 31.621094 15.050781 C 31.621094 8.726562 26.019531 3.960938 18.585938 3.960938 Z M 1.636719 29.949219 C 1.460938 29.949219 1.292969 29.980469 1.132812 30.042969 C 0.96875 30.109375 0.824219 30.203125 0.703125 30.324219 C 0.578125 30.445312 0.480469 30.585938 0.414062 30.746094 C 0.347656 30.90625 0.3125 31.070312 0.3125 31.246094 C 0.3125 31.417969 0.347656 31.585938 0.414062 31.746094 C 0.480469 31.90625 0.578125 32.046875 0.703125 32.167969 C 0.824219 32.289062 0.96875 32.382812 1.132812 32.449219 C 1.292969 32.511719 1.460938 32.542969 1.636719 32.542969 L 35.535156 32.542969 C 35.707031 32.542969 35.875 32.511719 36.039062 32.449219 C 36.199219 32.382812 36.34375 32.289062 36.46875 32.167969 C 36.589844 32.046875 36.6875 31.90625 36.753906 31.746094 C 36.820312 31.585938 36.855469 31.417969 36.855469 31.246094 C 36.855469 31.070312 36.820312 30.90625 36.753906 30.746094 C 36.6875 30.585938 36.589844 30.445312 36.46875 30.324219 C 36.34375 30.203125 36.199219 30.109375 36.039062 30.042969 C 35.875 29.980469 35.707031 29.949219 35.535156 29.949219 Z M 1.636719 29.949219 "/></g></g></svg>