<svg xmlns="http://www.w3.org/2000/svg" xmlns:xlink="http://www.w3.org/1999/xlink" width="50" zoomAndPan="magnify" viewBox="0 0 37.92 46.079998" height="50" preserveAspectRatio="xMidYMid meet" version="1.0"><defs><clipPath id="29f6f35adc"><path d="M 2.171875 0 L 35.257812 0 L 35.257812 36.765625 L 2.171875 36.765625 Z M 2.171875 0 " clip-rule="nonzero"/></clipPath></defs><g clip-path="url(#29f6f35adc)"><path fill="#000000" d="M 33.839844 17.449219 L 25.664062 17.449219 C 25.832031 12.023438 27.960938 6.652344 32.058594 2.523438 C 32.597656 1.980469 32.597656 1.105469 32.058594 0.5625 C 31.523438 0.0234375 30.652344 0.0234375 30.117188 0.5625 C 25.480469 5.234375 23.085938 11.316406 22.917969 17.449219 L 14.535156 17.449219 C 14.214844 11.550781 11.824219 5.75 7.363281 1.257812 C 6.824219 0.714844 5.953125 0.714844 5.417969 1.257812 C 4.882812 1.796875 4.882812 2.675781 5.417969 3.214844 C 9.34375 7.167969 11.460938 12.261719 11.78125 17.449219 L 3.589844 17.449219 C 2.832031 17.449219 2.21875 18.070312 2.21875 18.832031 C 2.21875 19.597656 2.832031 20.21875 3.589844 20.21875 L 11.78125 20.21875 C 11.460938 25.402344 9.34375 30.496094 5.417969 34.453125 C 4.882812 34.992188 4.882812 35.867188 5.417969 36.410156 C 5.6875 36.679688 6.039062 36.816406 6.390625 36.816406 C 6.742188 36.816406 7.09375 36.679688 7.363281 36.410156 C 11.824219 31.914062 14.214844 26.113281 14.535156 20.21875 L 22.992188 20.21875 C 23.457031 25.875 25.828125 31.398438 30.117188 35.714844 C 30.382812 35.988281 30.734375 36.121094 31.085938 36.121094 C 31.441406 36.121094 31.789062 35.988281 32.058594 35.714844 C 32.597656 35.175781 32.597656 34.300781 32.058594 33.757812 C 28.308594 29.980469 26.203125 25.164062 25.746094 20.21875 L 33.839844 20.21875 C 34.597656 20.21875 35.210938 19.597656 35.210938 18.832031 C 35.210938 18.070312 34.597656 17.449219 33.839844 17.449219 Z M 33.839844 17.449219 " fill-opacity="1" fill-rule="nonzero"/></g></svg>