<svg xmlns="http://www.w3.org/2000/svg" xmlns:xlink="http://www.w3.org/1999/xlink" width="50" zoomAndPan="magnify" viewBox="0 0 37.92 46.079998" height="50" preserveAspectRatio="xMidYMid meet" version="1.2"><defs><clipPath id="407850605f"><path d="M 0.332031 0 L 37.097656 0 L 37.097656 36.765625 L 0.332031 36.765625 Z M 0.332031 0 "/></clipPath></defs><g id="7fcdd59b5a"><g clip-rule="nonzero" clip-path="url(#407850605f)"><path style=" stroke:none;fill-rule:nonzero;fill:#000000;fill-opacity:1;" d="M 37.070312 1.203125 C 37.0625 1.160156 37.046875 1.121094 37.035156 1.082031 C 37.019531 1.035156 37.007812 0.988281 36.988281 0.941406 C 36.972656 0.894531 36.945312 0.851562 36.917969 0.804688 C 36.898438 0.769531 36.882812 0.730469 36.859375 0.699219 C 36.757812 0.542969 36.625 0.410156 36.46875 0.308594 C 36.4375 0.285156 36.398438 0.269531 36.367188 0.25 C 36.320312 0.226562 36.277344 0.195312 36.226562 0.175781 C 36.183594 0.160156 36.132812 0.148438 36.085938 0.132812 C 36.046875 0.121094 36.007812 0.105469 35.964844 0.0976562 C 35.875 0.0820312 35.78125 0.0703125 35.6875 0.0703125 L 21.601562 0.0703125 C 20.824219 0.0703125 20.195312 0.703125 20.195312 1.480469 C 20.195312 2.257812 20.824219 2.886719 21.601562 2.886719 L 32.289062 2.886719 L 17.375 17.800781 L 12.738281 13.160156 C 12.1875 12.609375 11.296875 12.609375 10.746094 13.160156 C 10.195312 13.710938 10.195312 14.601562 10.746094 15.152344 L 15.386719 19.792969 L 0.886719 34.289062 C 0.335938 34.839844 0.335938 35.734375 0.886719 36.28125 C 1.160156 36.558594 1.519531 36.695312 1.882812 36.695312 C 2.242188 36.695312 2.601562 36.558594 2.878906 36.28125 L 17.375 21.785156 L 22.015625 26.421875 C 22.289062 26.699219 22.652344 26.835938 23.011719 26.835938 C 23.371094 26.835938 23.730469 26.699219 24.007812 26.421875 C 24.558594 25.871094 24.558594 24.980469 24.007812 24.429688 L 19.367188 19.792969 L 34.28125 4.878906 L 34.28125 15.566406 C 34.28125 16.34375 34.910156 16.972656 35.6875 16.972656 C 36.464844 16.972656 37.097656 16.34375 37.097656 15.566406 L 37.097656 1.480469 C 37.097656 1.386719 37.089844 1.292969 37.070312 1.203125 Z M 37.070312 1.203125 "/></g></g></svg>