<svg xmlns="http://www.w3.org/2000/svg" xmlns:xlink="http://www.w3.org/1999/xlink" width="50" zoomAndPan="magnify" viewBox="0 0 37.92 46.079998" height="50" preserveAspectRatio="xMidYMid meet" version="1.0"><defs><clipPath id="05aa92d272"><path d="M 0.332031 1.242188 L 37 1.242188 L 37 35.800781 L 0.332031 35.800781 Z M 0.332031 1.242188 " clip-rule="nonzero"/></clipPath></defs><g clip-path="url(#05aa92d272)"><path fill="#000000" d="M 2.109375 1.230469 C 1.835938 1.246094 1.59375 1.339844 1.386719 1.511719 C 1.175781 1.6875 1.039062 1.910156 0.976562 2.175781 C 0.910156 2.441406 0.933594 2.703125 1.042969 2.953125 C 1.148438 3.207031 1.320312 3.398438 1.558594 3.535156 C 1.558594 3.535156 1.875 3.691406 2.367188 4.492188 C 2.859375 5.289062 3.410156 6.667969 3.410156 8.992188 L 3.410156 27.160156 C 3.40625 27.324219 3.4375 27.484375 3.496094 27.636719 C 3.558594 27.792969 3.648438 27.925781 3.761719 28.046875 C 3.875 28.164062 4.011719 28.253906 4.160156 28.316406 C 4.3125 28.378906 4.46875 28.414062 4.632812 28.414062 C 4.796875 28.414062 4.957031 28.378906 5.105469 28.316406 C 5.257812 28.253906 5.390625 28.164062 5.503906 28.046875 C 5.621094 27.925781 5.710938 27.792969 5.769531 27.636719 C 5.832031 27.484375 5.859375 27.324219 5.859375 27.160156 L 5.859375 8.992188 C 5.859375 8.578125 5.816406 8.21875 5.785156 7.839844 C 5.835938 7.703125 5.859375 7.558594 5.859375 7.414062 C 5.859375 5.351562 7.488281 3.710938 9.53125 3.710938 C 11.578125 3.710938 13.203125 5.351562 13.203125 7.414062 L 13.203125 27.160156 C 13.203125 27.324219 13.230469 27.484375 13.292969 27.636719 C 13.355469 27.792969 13.441406 27.925781 13.558594 28.046875 C 13.671875 28.164062 13.804688 28.253906 13.957031 28.316406 C 14.109375 28.378906 14.265625 28.414062 14.429688 28.414062 C 14.59375 28.414062 14.75 28.378906 14.902344 28.316406 C 15.054688 28.253906 15.1875 28.164062 15.300781 28.046875 C 15.417969 27.925781 15.503906 27.792969 15.566406 27.636719 C 15.625 27.484375 15.65625 27.324219 15.652344 27.160156 L 15.652344 7.5 C 15.65625 7.46875 15.65625 7.441406 15.652344 7.414062 C 15.652344 5.351562 17.28125 3.710938 19.328125 3.710938 C 21.371094 3.710938 23 5.351562 23 7.414062 L 23 22.222656 C 23 25.777344 23.941406 28.066406 25.472656 29.375 C 27.003906 30.679688 28.878906 30.863281 30.347656 30.863281 L 30.347656 35.800781 L 36.46875 29.628906 L 30.347656 23.457031 L 30.347656 28.394531 C 29.09375 28.394531 27.90625 28.21875 27.054688 27.492188 C 26.207031 26.769531 25.449219 25.355469 25.449219 22.222656 L 25.449219 7.414062 C 25.449219 4.019531 22.695312 1.242188 19.328125 1.242188 C 17.320312 1.242188 15.546875 2.238281 14.429688 3.753906 C 13.3125 2.238281 11.535156 1.242188 9.53125 1.242188 C 7.5625 1.242188 5.824219 2.207031 4.699219 3.671875 C 4.617188 3.511719 4.539062 3.328125 4.453125 3.1875 C 3.71875 1.992188 2.8125 1.414062 2.8125 1.414062 C 2.597656 1.28125 2.363281 1.21875 2.109375 1.230469 Z M 2.109375 1.230469 " fill-opacity="1" fill-rule="nonzero"/></g></svg>