<svg xmlns="http://www.w3.org/2000/svg" xmlns:xlink="http://www.w3.org/1999/xlink" width="50" zoomAndPan="magnify" viewBox="0 0 37.92 46.079998" height="50" preserveAspectRatio="xMidYMid meet" version="1.2"><defs><clipPath id="1da90e2dce"><path d="M 0.332031 0 L 37 0 L 37 36.765625 L 0.332031 36.765625 Z M 0.332031 0 "/></clipPath></defs><g id="64f8072ede"><g clip-rule="nonzero" clip-path="url(#1da90e2dce)"><path style=" stroke:none;fill-rule:nonzero;fill:#000000;fill-opacity:1;" d="M 1.695312 0.15625 C 1.496094 0.167969 1.304688 0.214844 1.121094 0.304688 C 0.9375 0.390625 0.78125 0.507812 0.644531 0.65625 C 0.511719 0.808594 0.410156 0.976562 0.339844 1.167969 C 0.273438 1.355469 0.246094 1.554688 0.253906 1.753906 C 0.265625 1.957031 0.3125 2.148438 0.398438 2.328125 C 0.488281 2.511719 0.605469 2.671875 0.753906 2.804688 C 0.902344 2.941406 1.074219 3.042969 1.265625 3.109375 C 1.453125 3.179688 1.648438 3.207031 1.851562 3.195312 C 3.992188 3.195312 5.066406 3.761719 5.976562 4.65625 C 6.886719 5.550781 7.585938 6.910156 8.378906 8.449219 C 9.171875 9.988281 10.070312 11.707031 11.660156 13.078125 C 11.992188 13.363281 12.367188 13.613281 12.757812 13.855469 C 8.996094 15.925781 6.410156 19.882812 6.410156 24.464844 C 6.410156 31.160156 11.867188 36.621094 18.5625 36.621094 C 25.257812 36.621094 30.71875 31.160156 30.71875 24.464844 C 30.71875 19.882812 28.128906 15.925781 24.367188 13.855469 C 24.757812 13.613281 25.132812 13.363281 25.464844 13.078125 C 27.054688 11.707031 27.953125 9.988281 28.746094 8.449219 C 29.539062 6.910156 30.242188 5.550781 31.148438 4.65625 C 32.058594 3.761719 33.136719 3.195312 35.273438 3.195312 C 35.476562 3.199219 35.675781 3.164062 35.863281 3.085938 C 36.050781 3.011719 36.21875 2.902344 36.363281 2.757812 C 36.507812 2.617188 36.621094 2.449219 36.699219 2.261719 C 36.777344 2.074219 36.816406 1.878906 36.816406 1.675781 C 36.816406 1.472656 36.777344 1.277344 36.699219 1.089844 C 36.621094 0.902344 36.507812 0.738281 36.363281 0.59375 C 36.21875 0.453125 36.050781 0.34375 35.863281 0.265625 C 35.675781 0.191406 35.476562 0.15625 35.273438 0.15625 C 32.507812 0.15625 30.429688 1.105469 29.019531 2.488281 C 27.609375 3.875 26.820312 5.554688 26.046875 7.054688 C 25.273438 8.554688 24.535156 9.875 23.484375 10.78125 C 22.433594 11.6875 21.058594 12.3125 18.5625 12.3125 C 16.066406 12.3125 14.695312 11.6875 13.644531 10.78125 C 12.59375 9.875 11.851562 8.554688 11.078125 7.054688 C 10.304688 5.554688 9.515625 3.875 8.105469 2.488281 C 6.695312 1.105469 4.617188 0.15625 1.851562 0.15625 C 1.800781 0.15625 1.75 0.15625 1.695312 0.15625 Z M 18.5625 15.351562 C 23.617188 15.351562 27.679688 19.414062 27.679688 24.464844 C 27.679688 29.519531 23.617188 33.582031 18.5625 33.582031 C 13.511719 33.582031 9.449219 29.519531 9.449219 24.464844 C 9.449219 19.414062 13.511719 15.351562 18.5625 15.351562 Z M 18.5625 15.351562 "/></g></g></svg>