<svg xmlns="http://www.w3.org/2000/svg" xmlns:xlink="http://www.w3.org/1999/xlink" width="50" zoomAndPan="magnify" viewBox="0 0 37.92 46.079998" height="50" preserveAspectRatio="xMidYMid meet" version="1.0"><defs><clipPath id="75d4a6ad7a"><path d="M 0.332031 0 L 37 0 L 37 36.765625 L 0.332031 36.765625 Z M 0.332031 0 " clip-rule="nonzero"/></clipPath></defs><g clip-path="url(#75d4a6ad7a)"><path fill="#000000" d="M 1.648438 0.128906 C 1.335938 0.144531 1.058594 0.25 0.820312 0.449219 C 0.578125 0.648438 0.421875 0.898438 0.347656 1.203125 C 0.277344 1.507812 0.300781 1.800781 0.425781 2.085938 C 0.550781 2.375 0.746094 2.59375 1.015625 2.75 C 1.015625 2.75 1.382812 2.925781 1.945312 3.835938 C 2.507812 4.746094 3.136719 6.3125 3.136719 8.953125 L 3.136719 29.609375 C 3.136719 29.796875 3.167969 29.976562 3.238281 30.152344 C 3.308594 30.328125 3.410156 30.480469 3.542969 30.613281 C 3.675781 30.75 3.828125 30.851562 4 30.921875 C 4.171875 30.996094 4.355469 31.03125 4.542969 31.03125 C 4.730469 31.03125 4.910156 30.996094 5.082031 30.921875 C 5.257812 30.851562 5.410156 30.75 5.542969 30.613281 C 5.671875 30.480469 5.773438 30.328125 5.84375 30.152344 C 5.914062 29.976562 5.949219 29.796875 5.945312 29.609375 L 5.945312 8.953125 C 5.945312 8.480469 5.894531 8.074219 5.863281 7.644531 C 5.917969 7.488281 5.945312 7.324219 5.945312 7.15625 C 5.945312 4.8125 7.8125 2.945312 10.15625 2.945312 C 12.5 2.945312 14.363281 4.8125 14.363281 7.15625 L 14.363281 29.609375 C 14.363281 29.796875 14.394531 29.976562 14.464844 30.152344 C 14.535156 30.328125 14.636719 30.480469 14.769531 30.613281 C 14.902344 30.75 15.054688 30.851562 15.226562 30.921875 C 15.398438 30.996094 15.582031 31.03125 15.769531 31.03125 C 15.957031 31.03125 16.136719 30.996094 16.308594 30.921875 C 16.484375 30.851562 16.636719 30.75 16.765625 30.613281 C 16.898438 30.480469 17 30.328125 17.070312 30.152344 C 17.140625 29.976562 17.175781 29.796875 17.171875 29.609375 L 17.171875 7.253906 C 17.171875 7.222656 17.171875 7.191406 17.171875 7.15625 C 17.171875 4.8125 19.039062 2.945312 21.382812 2.945312 C 23.726562 2.945312 25.589844 4.8125 25.589844 7.15625 L 25.589844 26.800781 C 25.589844 27.613281 25.675781 28.328125 25.773438 29.027344 C 24.410156 29.890625 22.851562 30.59375 21.035156 31.054688 C 20.851562 31.097656 20.679688 31.171875 20.523438 31.28125 C 20.367188 31.390625 20.242188 31.527344 20.140625 31.691406 C 20.039062 31.851562 19.976562 32.027344 19.949219 32.214844 C 19.917969 32.402344 19.925781 32.589844 19.972656 32.773438 C 20.019531 32.957031 20.101562 33.125 20.21875 33.277344 C 20.332031 33.429688 20.472656 33.550781 20.636719 33.644531 C 20.804688 33.738281 20.980469 33.796875 21.167969 33.820312 C 21.359375 33.84375 21.542969 33.828125 21.726562 33.773438 C 23.492188 33.324219 25.050781 32.65625 26.457031 31.855469 C 27.019531 33.226562 27.828125 34.265625 28.835938 34.996094 C 30.839844 36.453125 33.265625 36.625 35.414062 36.625 C 35.601562 36.628906 35.78125 36.59375 35.957031 36.523438 C 36.132812 36.453125 36.285156 36.355469 36.417969 36.222656 C 36.554688 36.089844 36.65625 35.9375 36.726562 35.765625 C 36.800781 35.589844 36.835938 35.410156 36.835938 35.222656 C 36.835938 35.035156 36.800781 34.855469 36.726562 34.679688 C 36.65625 34.507812 36.554688 34.355469 36.417969 34.222656 C 36.285156 34.089844 36.132812 33.988281 35.957031 33.921875 C 35.78125 33.851562 35.601562 33.816406 35.414062 33.820312 C 33.453125 33.820312 31.664062 33.582031 30.484375 32.726562 C 29.804688 32.234375 29.242188 31.449219 28.863281 30.246094 C 30.964844 28.578125 32.578125 26.585938 33.757812 24.566406 C 36.023438 20.683594 36.816406 16.808594 36.816406 14.523438 L 36.816406 14.171875 C 36.816406 11.089844 34.289062 8.558594 31.203125 8.558594 C 30.179688 8.558594 29.226562 8.863281 28.398438 9.347656 L 28.398438 7.15625 C 28.398438 3.296875 25.238281 0.140625 21.382812 0.140625 C 19.082031 0.140625 17.050781 1.277344 15.769531 2.996094 C 14.484375 1.277344 12.453125 0.140625 10.15625 0.140625 C 7.898438 0.140625 5.90625 1.238281 4.617188 2.902344 C 4.523438 2.722656 4.433594 2.515625 4.332031 2.355469 C 3.492188 0.996094 2.453125 0.335938 2.453125 0.335938 C 2.207031 0.183594 1.9375 0.117188 1.648438 0.128906 Z M 31.203125 11.367188 C 32.769531 11.367188 34.011719 12.609375 34.011719 14.171875 L 34.011719 14.523438 C 34.011719 16.085938 33.320312 19.753906 31.335938 23.152344 C 30.558594 24.480469 29.59375 25.773438 28.410156 26.941406 C 28.40625 26.886719 28.398438 26.855469 28.398438 26.800781 L 28.398438 14.273438 C 28.398438 14.238281 28.398438 14.207031 28.398438 14.171875 C 28.398438 12.609375 29.640625 11.367188 31.203125 11.367188 Z M 31.203125 11.367188 " fill-opacity="1" fill-rule="nonzero"/></g></svg>