<svg xmlns="http://www.w3.org/2000/svg" style="position: relative; overflow: hidden;" version="1.1" width="1000" height="1000"><g id="astrology"><g id="astrology-aspects"><line x1="348.58629723576917" y1="337.3451302155147" x2="565.2205441740966" y2="287.56413516777013" stroke="#90CAF9" stroke-width="1.4245014245014245" data-name="sextile" data-degree="60" data-point="Chiron" data-toPoint="Mercury" data-precision="0.0173"></line><line x1="415.39321808588977" y1="294.5142133783436" x2="294.57761998284684" y2="584.7606148955458" stroke="#EF5350" stroke-width="1.4245014245014245" data-name="square" data-degree="90" data-point="Lilith" data-toPoint="Sun" data-precision="0.0429"></line><line x1="481.5145347390354" y1="278.5479654113144" x2="278.51439780042153" y2="518.0788292672066" stroke="#EF5350" stroke-width="1.4245014245014245" data-name="square" data-degree="90" data-point="Pluto" data-toPoint="Venus" data-precision="0.1052"></line><line x1="563.6537289115752" y1="712.9105888513636" x2="712.6867728053954" y2="435.6023857351157" stroke="#EF5350" stroke-width="1.4245014245014245" data-name="square" data-degree="90" data-point="Mars" data-toPoint="Ic" data-precision="0.2003"></line><line x1="436.3462710884251" y1="287.08941114863626" x2="712.6867728053954" y2="435.6023857351157" stroke="#EF5350" stroke-width="1.4245014245014245" data-name="square" data-degree="90" data-point="Mars" data-toPoint="Mc" data-precision="0.2003"></line><line x1="277.91967477692566" y1="507.9401006414435" x2="393.71884670763535" y2="695.1589928858714" stroke="#90CAF9" stroke-width="1.4245014245014245" data-name="sextile" data-degree="60" data-point="Neptune" data-toPoint="Moon" data-precision="0.6198"></line><line x1="534.2845172071308" y1="280.4384188222888" x2="294.57761998284684" y2="584.7606148955458" stroke="#81C784" stroke-width="1.4245014245014245" data-name="trine" data-degree="120" data-point="Lilith" data-toPoint="Jupiter" data-precision="1.2969"></line><line x1="277.77777777777777" y1="500" x2="393.71884670763535" y2="695.1589928858714" stroke="#90CAF9" stroke-width="1.4245014245014245" data-name="sextile" data-degree="60" data-point="Neptune" data-toPoint="As" data-precision="1.4278"></line><line x1="722.2222222222222" y1="500" x2="393.71884670763535" y2="695.1589928858714" stroke="#81C784" stroke-width="1.4245014245014245" data-name="trine" data-degree="120" data-point="Neptune" data-toPoint="Ds" data-precision="1.4278"></line><line x1="277.77777777777777" y1="500" x2="277.91967477692566" y2="507.9401006414435" stroke="#80CBC4" stroke-width="1.4245014245014245" data-name="conjunction" data-degree="0" data-point="Moon" data-toPoint="As" data-precision="2.0476"></line><line x1="722.2222222222222" y1="500" x2="277.91967477692566" y2="507.9401006414435" stroke="#E57373" stroke-width="1.4245014245014245" data-name="opposition" data-degree="180" data-point="Moon" data-toPoint="Ds" data-precision="2.0476"></line><line x1="277.91967477692566" y1="507.9401006414435" x2="278.51439780042153" y2="518.0788292672066" stroke="#80CBC4" stroke-width="1.4245014245014245" data-name="conjunction" data-degree="0" data-point="Pluto" data-toPoint="Moon" data-precision="2.6188"></line><line x1="481.5145347390354" y1="278.5479654113144" x2="277.91967477692566" y2="507.9401006414435" stroke="#EF5350" stroke-width="1.4245014245014245" data-name="square" data-degree="90" data-point="Moon" data-toPoint="Venus" data-precision="2.7240"></line><line x1="415.39321808588977" y1="294.5142133783436" x2="373.0898687690213" y2="682.4185698889191" stroke="#81C784" stroke-width="1.4245014245014245" data-name="trine" data-degree="120" data-point="Uranus" data-toPoint="Sun" data-precision="2.7944"></line><line x1="277.77777777777777" y1="500" x2="486.0304484911395" y2="721.7827037440567" stroke="#EF5350" stroke-width="1.4245014245014245" data-name="square" data-degree="90" data-point="NNode" data-toPoint="As" data-precision="3.6042"></line><line x1="722.2222222222222" y1="500" x2="486.0304484911395" y2="721.7827037440567" stroke="#EF5350" stroke-width="1.4245014245014245" data-name="square" data-degree="90" data-point="NNode" data-toPoint="Ds" data-precision="3.6042"></line><line x1="348.58629723576917" y1="337.3451302155147" x2="712.6867728053954" y2="435.6023857351157" stroke="#81C784" stroke-width="1.4245014245014245" data-name="trine" data-degree="120" data-point="Mars" data-toPoint="Mercury" data-precision="3.8952"></line><line x1="419.40739203360664" y1="707.0930891907259" x2="565.2205441740966" y2="287.56413516777013" stroke="#E57373" stroke-width="1.4245014245014245" data-name="opposition" data-degree="180" data-point="Chiron" data-toPoint="Saturn" data-precision="4.1969"></line><line x1="277.77777777777777" y1="500" x2="278.51439780042153" y2="518.0788292672066" stroke="#80CBC4" stroke-width="1.4245014245014245" data-name="conjunction" data-degree="0" data-point="Pluto" data-toPoint="As" data-precision="4.6664"></line><line x1="722.2222222222222" y1="500" x2="278.51439780042153" y2="518.0788292672066" stroke="#E57373" stroke-width="1.4245014245014245" data-name="opposition" data-degree="180" data-point="Pluto" data-toPoint="Ds" data-precision="4.6664"></line></g><g id="astrology-radix"><g id="astrology-bg"><path d="M 277.77777777777777, 500 l -166.66666666666669, 2.0410779985789223e-14 A 388.8888888888889, 388.8888888888889,0 ,1, 0, 111.11111703422756, 499.93212608498936 l 166.66666412818822, 0.029088820718834056 A 222.22222222222223, 222.22222222222223,0 ,1, 1, 277.77777777777777, 500" fill="#F4FAFC"></path></g><g id="astrology-radix-signs"><path d="M 795.3540518963014, 752.9833036579123 l 42.19343598518591, 36.14047195113032 A 444.44444444444446, 444.44444444444446,0 ,0, 0, 936.8865872935093, 581.6147905747589 l -54.61082341168865, -10.201848821844868 A 388.8888888888889, 388.8888888888889,0 ,0, 1, 795.3540518963014, 752.9833036579123" fill="#F4FAFC" stroke="rgba(55,71,79 ,0.6)" stroke-width="1"></path><path d="M 882.2757638818207, 571.4129417529141 l 54.61082341168865, 10.201848821844868 A 444.44444444444446, 444.44444444444446,0 ,0, 0, 919.1622784562462, 352.2371883155334 l -52.39528480703077, 18.47035146055832 A 388.8888888888889, 388.8888888888889,0 ,0, 1, 882.2757638818207, 571.4129417529141" fill="#F4FAFC" stroke="rgba(55,71,79 ,0.6)" stroke-width="1"></path><path d="M 866.7669936492155, 370.7075397760917 l 52.39528480703077, -18.47035146055832 A 444.44444444444446, 444.44444444444446,0 ,0, 0, 789.1237756090427, 162.4525121185127 l -36.14047195113033, 42.1934359851859 A 388.8888888888889, 388.8888888888889,0 ,0, 1, 866.7669936492155, 370.7075397760917" fill="#F4FAFC" stroke="rgba(55,71,79 ,0.6)" stroke-width="1"></path><path d="M 752.9833036579123, 204.64594810369863 l 36.14047195113033, -42.1934359851859 A 444.44444444444446, 444.44444444444446,0 ,0, 0, 581.6147905747589, 63.11341270649075 l -10.201848821844866, 54.61082341168865 A 388.8888888888889, 388.8888888888889,0 ,0, 1, 752.9833036579123, 204.64594810369863" fill="#F4FAFC" stroke="rgba(55,71,79 ,0.6)" stroke-width="1"></path><path d="M 571.4129417529141, 117.72423611817936 l 10.201848821844866, -54.61082341168865 A 444.44444444444446, 444.44444444444446,0 ,0, 0, 352.23718831553344, 80.83772154375367 l 18.470351460558316, 52.39528480703078 A 388.8888888888889, 388.8888888888889,0 ,0, 1, 571.4129417529141, 117.72423611817936" fill="#F4FAFC" stroke="rgba(55,71,79 ,0.6)" stroke-width="1"></path><path d="M 370.7075397760917, 133.23300635078448 l -18.470351460558316, -52.39528480703078 A 444.44444444444446, 444.44444444444446,0 ,0, 0, 162.4525121185127, 210.8762243909573 l 42.1934359851859, 36.14047195113033 A 388.8888888888889, 388.8888888888889,0 ,0, 1, 370.7075397760917, 133.23300635078448" fill="#F4FAFC" stroke="rgba(55,71,79 ,0.6)" stroke-width="1"></path><path d="M 204.64594810369863, 247.01669634208764 l -42.1934359851859, -36.14047195113033 A 444.44444444444446, 444.44444444444446,0 ,0, 0, 63.11341270649075, 418.38520942524093 l 54.61082341168865, 10.20184882184488 A 388.8888888888889, 388.8888888888889,0 ,0, 1, 204.64594810369863, 247.01669634208764" fill="#F4FAFC" stroke="rgba(55,71,79 ,0.6)" stroke-width="1"></path><path d="M 117.72423611817936, 428.5870582470858 l -54.61082341168865, -10.20184882184488 A 444.44444444444446, 444.44444444444446,0 ,0, 0, 80.83772154375373, 647.7628116844667 l 52.39528480703077, -18.470351460558323 A 388.8888888888889, 388.8888888888889,0 ,0, 1, 117.72423611817936, 428.5870582470858" fill="#F4FAFC" stroke="rgba(55,71,79 ,0.6)" stroke-width="1"></path><path d="M 133.23300635078454, 629.2924602239083 l -52.39528480703077, 18.470351460558323 A 444.44444444444446, 444.44444444444446,0 ,0, 0, 210.8762243909573, 837.5474878814873 l 36.14047195113033, -42.19343598518589 A 388.8888888888889, 388.8888888888889,0 ,0, 1, 133.23300635078454, 629.2924602239083" fill="#F4FAFC" stroke="rgba(55,71,79 ,0.6)" stroke-width="1"></path><path d="M 247.01669634208764, 795.3540518963014 l -36.14047195113033, 42.19343598518589 A 444.44444444444446, 444.44444444444446,0 ,0, 0, 418.3852094252411, 936.8865872935093 l 10.201848821844859, -54.61082341168865 A 388.8888888888889, 388.8888888888889,0 ,0, 1, 247.01669634208764, 795.3540518963014" fill="#F4FAFC" stroke="rgba(55,71,79 ,0.6)" stroke-width="1"></path><path d="M 428.58705824708596, 882.2757638818207 l -10.201848821844859, 54.61082341168865 A 444.44444444444446, 444.44444444444446,0 ,0, 0, 647.7628116844664, 919.1622784562463 l -18.470351460558298, -52.395284807030784 A 388.8888888888889, 388.8888888888889,0 ,0, 1, 428.58705824708596, 882.2757638818207" fill="#F4FAFC" stroke="rgba(55,71,79 ,0.6)" stroke-width="1"></path><path d="M 629.2924602239082, 866.7669936492156 l 18.470351460558298, 52.395284807030784 A 444.44444444444446, 444.44444444444446,0 ,0, 0, 837.5474878814873, 789.1237756090427 l -42.19343598518589, -36.14047195113034 A 388.8888888888889, 388.8888888888889,0 ,0, 1, 629.2924602239082, 866.7669936492156" fill="#F4FAFC" stroke="rgba(55,71,79 ,0.6)" stroke-width="1"></path><g transform="translate(-366.34472934472933,-287.3874643874644) scale(1.4245014245014245)"><path d="m 863, 677 -0.9,-0.9 0,-1.8 0.9,-1.8 1.8,-0.8999998 1.8,0 1.8,0.8999998 0.9,0.9 0.9,1.8 0.9,4.5 m -9,-5.4 1.8,-1.8 1.8,0 1.8,0.9 0.9,0.9 0.9,1.8 0.9,3.6 0,9.9 m 8.1,-12.6 0.9,-0.9 0,-1.8 -0.9,-1.8 -1.8,-0.8999998 -1.8,0 -1.8,0.8999998 -0.9,0.9 -0.9,1.8 -0.9,4.5 m 9,-5.4 -1.8,-1.8 -1.8,0 -1.8,0.9 -0.9,0.9 -0.9,1.8 -0.9,3.6 0,9.9" stroke="Black" stroke-width="1.5" fill="none"></path></g><g transform="translate(-383.3247863247863,-191.87464387464385) scale(1.4245014245014245)"><path d="m 903, 452 1,4 1,2 2,2 3,1 4,0 3,-1 2,-2 1,-2 1,-4 m -18,0 1,3 1,2 2,2 3,1 4,0 3,-1 2,-2 1,-2 1,-3 m -11,8 -2,1 -1,1 -1,2 0,3 1,2 2,2 2,1 2,0 2,-1 2,-2 1,-2 0,-3 -1,-2 -1,-1 -2,-1 m -4,1 -2,1 -1,2 0,3 1,3 m 8,0 1,-3 0,-3 -1,-2 -2,-1" stroke="Black" stroke-width="1.5" fill="none"></path></g><g transform="translate(-354.45868945868943,-108.67236467236467) scale(1.4245014245014245)"><path d="m 835, 256 0,11.546414 m 0.9622011,-10.5842129 0,9.6220117 m 7.6976097,-9.6220117 0,9.6220117 m 0.962201,-10.5842128 0,11.546414 m -13.4708165,-14.4330172 1.9244023,1.924402 1.9244024,0.9622012 2.8866038,0.9622011 3.848804,0 2.886604,-0.9622011 1.924402,-0.9622012 1.924403,-1.924402 m -17.3196215,17.3196207 1.9244023,-1.9244024 1.9244024,-0.9622011 2.8866038,-0.9622012 3.848804,0 2.886604,0.9622012 1.924402,0.9622011 1.924403,1.9244024" stroke="Black" stroke-width="1.5" fill="none"></path></g><g transform="translate(-294.1794871794872,-47.11965811965812) scale(1.4245014245014245)"><path d="m 693, 111 -15,0 -2,1 -1,2 0,2 1,2 2,1 2,0 2,-1 1,-2 0,-2 -1,-2 11,0 m -18,3 1,2 1,1 2,1 m 4,-4 -1,-2 -1,-1 -2,-1 m -4,15 15,0 2,-1 1,-2 0,-2 -1,-2 -2,-1 -2,0 -2,1 -1,2 0,2 1,2 -11,0 m 18,-3 -1,-2 -1,-1 -2,-1 m -4,4 1,2 1,1 2,1" stroke="Black" stroke-width="1.5" fill="none"></path></g><g transform="translate(-196.96866096866097,-38.205128205128204) scale(1.4245014245014245)"><path d="m 464, 90 -2,-1 -1,0 -2,1 -1,2 0,1 1,2 2,1 1,0 2,-1 1,-2 0,-1 -1,-2 -5,-5 -1,-2 0,-3 1,-2 2,-1 3,-1 4,0 4,1 2,2 1,2 0,3 -1,3 -3,3 -1,2 0,2 1,2 2,0 1,-1 1,-2 m -13,-5 -2,-3 -1,-2 0,-3 1,-2 1,-1 m 7,-1 3,1 2,2 1,2 0,3 -1,3 -2,3" stroke="Black" stroke-width="1.5" fill="none"></path></g><g transform="translate(-106.97435897435896,-63.25071225071225) scale(1.4245014245014245)"><path d="m 252, 149 2.5894868,-2.5894868 1.7263245,2.5894868 0,9.4947847 m -2.5894868,-11.2211092 1.7263245,2.5894867 0,8.6316225 m 0.8631623,-9.4947847 2.5894867,-2.5894868 1.72632451,2.5894868 0,8.6316224 m -2.58948671,-10.3579469 1.72632447,2.5894867 0,7.7684602 m 0.86316224,-8.6316224 2.58948679,-2.5894868 1.7263244,2.5894868 0,13.8105959 m -2.5894867,-15.5369204 1.7263245,2.5894867 0,12.9474337 m 0.8631622,-13.8105959 2.5894868,-2.5894868 0.8631622,1.7263245 0.8631623,2.5894868 0,2.5894867 -0.8631623,2.58948673 -0.8631622,1.72632447 -1.7263245,1.7263245 -2.5894867,1.7263245 -4.3158113,1.7263245 m 7.7684602,-15.5369204 0.8631623,0.8631622 0.8631622,2.5894868 0,2.5894867 -0.8631622,2.58948673 -0.8631623,1.72632447 -1.7263245,1.7263245 -2.5894867,1.7263245 -3.452649,1.7263245" stroke="Black" stroke-width="1.5" fill="none"></path></g><g transform="translate(-51.36467236467236,-131.17094017094016) scale(1.4245014245014245)"><path d="m 121, 309 c 0.7519,1e-5 1.3924,0.12227 1.9316,0.35156 0.6619,0.28495 1.2134,0.63854 1.666,1.0625 0.4838,0.45481 0.853,0.97255 1.1172,1.56641 0.2467,0.56612 0.3711,1.17397 0.3711,1.83789 0,0.64113 -0.1244,1.23948 -0.373,1.80859 -0.1624,0.36305 -0.3631,0.69725 -0.6055,1.00586 l -0.6367,0.8086 4.3789,0 0,0.67187 -5.4024,0 0,-0.91797 c 0.2173,-0.1385 0.4379,-0.27244 0.6367,-0.44726 0.4215,-0.36876 0.7529,-0.82784 0.9883,-1.35547 0.2215,-0.50074 0.334,-1.0358 0.334,-1.58594 0,-0.55653 -0.1122,-1.09434 -0.334,-1.5957 l -0,-0.002 0,-0.004 c -0.2292,-0.49901 -0.5581,-0.94778 -0.9746,-1.33789 l -0,-0.002 -0,-0.002 c -0.3967,-0.36155 -0.8679,-0.65723 -1.4062,-0.88476 l -0,0 c -0.4984,-0.20903 -1.0622,-0.30663 -1.6817,-0.30664 -0.5926,1e-5 -1.1526,0.10008 -1.6699,0.30273 l -0,0 c -0.5261,0.20799 -1.0032,0.5067 -1.4199,0.88867 l -0,0.002 -0,0.002 c -0.4166,0.39011 -0.7454,0.83887 -0.9746,1.33789 l 0,0.004 -0,0.002 c -0.2218,0.50136 -0.334,1.03915 -0.334,1.5957 0,0.55015 0.1125,1.08519 0.334,1.58594 l 0,0.002 0,0.004 c 0.229,0.49855 0.5574,0.94911 0.9746,1.33984 0.1876,0.17482 0.4143,0.31484 0.6367,0.45703 l 0,0.91797 -5.3906,0 0,-0.67187 4.3789,0 -0.6367,-0.8086 c -0.2428,-0.30904 -0.443,-0.64418 -0.6055,-1.00781 -0.2487,-0.56911 -0.3731,-1.16552 -0.3731,-1.80664 0,-0.66391 0.1244,-1.27178 0.3711,-1.83789 l 0,-0.002 c 3e-4,-5.8e-4 -2e-4,-10e-4 0,-0.002 0.2641,-0.59218 0.6326,-1.10871 1.1153,-1.5625 0.4847,-0.45571 1.0332,-0.80585 1.6562,-1.05859 0.5861,-0.23488 1.2294,-0.35546 1.9414,-0.35547 z m -7.8496,13.45899 15.6992,0 0,0.67187 -15.6992,0 z" stroke="Black" stroke-width="1.5" fill="none"></path></g><g transform="translate(-30.564102564102562,-223.28774928774928) scale(1.4245014245014245)"><path d="m 72, 526 2.3781101,-2.3781101 2.3781101,2.3781101 0,9.5124404 m -3.1708135,-11.0978471 2.3781101,2.3781101 0,8.719737 m 0.7927034,-9.5124404 2.3781101,-2.3781101 2.37811007,2.3781101 0,9.5124404 m -3.17081347,-11.0978471 2.3781101,2.3781101 0,8.719737 m 0.79270337,-9.5124404 2.37811013,-2.3781101 2.3781101,2.3781101 0,8.719737 1.5854067,1.5854068 m -4.7562202,-11.8905505 2.3781101,2.3781101 0,8.719737 1.5854067,1.5854067 2.3781101,-2.3781101" stroke="Black" stroke-width="1.5" fill="none"></path></g><g transform="translate(-70.46723646723646,-306.9145299145299) scale(1.4245014245014245)"><path d="m 166, 723 -17.11444,17.11444 m 17.11444,-17.11444 -3.2089575,1.0696525 -6.417915,0 m 7.4875675,1.0696525 -3.2089575,0 -4.27861,-1.0696525 m 9.6268725,-1.0696525 -1.0696525,3.2089575 0,6.41791504 m -1.0696525,-7.48756754 0,3.2089575 1.0696525,4.27861004 m -8.55722,0 -7.4875675,0 m 6.417915,1.06965246 -3.2089575,0 -3.2089575,-1.06965246 m 7.4875675,0 0,7.48756746 m -1.0696525,-6.417915 0,3.2089575 1.0696525,3.2089575" stroke="Black" stroke-width="1.5" fill="none"></path></g><g transform="translate(-130.32193732193733,-370.16524216524215) scale(1.4245014245014245)"><path d="m 307, 872 1.8047633,-3.6095267 4.5119084,9.0238168 m -4.5119084,-7.2190534 4.5119084,9.0238167 2.707145,-6.3166717 4.5119084,0 2.707145,-0.9023817 0.9023817,-1.8047633 0,-1.8047634 -0.9023817,-1.8047633 -1.8047634,-0.9023817 -0.9023816,0 -1.8047634,0.9023817 -0.9023817,1.8047633 0,1.8047634 0.9023817,2.707145 0.9023817,1.80476336 0.9023817,2.70714504 0,2.707145 -1.8047634,1.8047633 m 1.8047634,-16.2428701 -0.9023817,0.9023817 -0.9023817,1.8047633 0,1.8047634 1.8047634,3.6095267 0.9023816,2.707145 0,2.707145 -0.9023816,1.8047634 -1.8047634,0.9023816" stroke="Black" stroke-width="1.5" fill="none"></path></g><g transform="translate(-221.16524216524215,-387.5698005698005) scale(1.4245014245014245)"><path d="m 521, 913 2.8866035,-2.8866035 3.8488047,1.9244023 m -4.8110059,-0.9622011 3.8488047,1.9244023 2.8866035,-2.8866035 2.8866035,1.9244023 m -3.84880467,-0.9622011 2.88660347,1.9244023 2.8866035,-2.8866035 1.9244024,1.9244023 m -2.8866035,-0.9622011 1.9244023,1.9244023 2.8866035,-2.8866035 m -17.319621,8.6598105 2.8866035,-2.88660348 3.8488047,1.92440238 m -4.8110059,-0.96220121 3.8488047,1.92440231 2.8866035,-2.88660348 2.8866035,1.92440238 m -3.84880467,-0.96220121 2.88660347,1.92440231 2.8866035,-2.88660348 1.9244024,1.92440238 m -2.8866035,-0.96220121 1.9244023,1.92440231 2.8866035,-2.88660348" stroke="Black" stroke-width="1.5" fill="none"></path></g><g transform="translate(-307.3390313390313,-353.18518518518516) scale(1.4245014245014245)"><path d="m 724, 832 4,2 2,2 1,3 0,3 -1,3 -2,2 -4,2 m 0,-17 3,1 2,1 2,2 1,3 m 0,3 -1,3 -2,2 -2,1 -3,1 m 16,-17 -3,1 -2,1 -2,2 -1,3 m 0,3 1,3 2,2 2,1 3,1 m 0,-17 -4,2 -2,2 -1,3 0,3 1,3 2,2 4,2 m -17,-9 18,0 m -18,1 18,0" stroke="Black" stroke-width="1.5" fill="none"></path></g></g><g id="astrology-radix-ruler"><line x1="784.8056929000049" y1="743.9481856701298" x2="795.3540518963014" y2="752.9833036579123" stroke="#333" stroke-width="1.4245014245014245"></line><line x1="804.9834065673546" y1="718.1974374702227" x2="810.6312474297131" y2="722.2381307567082" stroke="#333" stroke-width="1.4245014245014245"></line><line x1="822.8400123567108" y1="690.7860750199521" x2="834.7970498514038" y2="697.8522259466171" stroke="#333" stroke-width="1.4245014245014245"></line><line x1="838.2396107159033" y1="661.922715338998" x2="844.5033072106422" y2="664.9212841415721" stroke="#333" stroke-width="1.4245014245014245"></line><line x1="851.0650014028868" y1="631.8270260227055" x2="864.067408862253" y2="636.7095084679909" stroke="#333" stroke-width="1.4245014245014245"></line><line x1="861.2185754503508" y1="600.7280534390455" x2="867.907808329061" y2="602.5933877619908" stroke="#333" stroke-width="1.4245014245014245"></line><line x1="868.6230580288984" y1="568.8624795474528" x2="882.2757638818207" y2="571.4129417529141" stroke="#333" stroke-width="1.4245014245014245"></line><line x1="873.2220965551581" y1="536.472820606202" x2="880.1336168617352" y2="537.1482432100206" stroke="#333" stroke-width="1.4245014245014245"></line><line x1="874.9806895689696" y1="503.80558147724685" x2="888.8688632567093" y2="503.9465289393671" stroke="#333" stroke-width="1.4245014245014245"></line><line x1="873.8854531156305" y1="471.10937957537686" x2="880.8092578029571" y2="470.574368086032" stroke="#333" stroke-width="1.4245014245014245"></line><line x1="869.9447226058724" y1="438.63305273957184" x2="883.6463789986824" y2="436.36020284103745" stroke="#333" stroke-width="1.4245014245014245"></line><line x1="863.1884893783525" y1="406.62376542679453" x2="869.9142021446183" y2="404.89457589766107" stroke="#333" stroke-width="1.4245014245014245"></line><line x1="853.6681724474578" y1="375.3251276412313" x2="866.7669936492155" y2="370.7075397760917" stroke="#333" stroke-width="1.4245014245014245"></line><line x1="841.4562271735566" y1="344.97534091506446" x2="847.7794906397337" y2="342.104513894973" stroke="#333" stroke-width="1.4245014245014245"></line><line x1="826.6455938339577" y1="315.80538545098244" x2="838.7435787907709" y2="308.9833626899077" stroke="#333" stroke-width="1.4245014245014245"></line><line x1="809.3489902912802" y1="288.0372622233676" x2="815.0776752966742" y2="284.1120263386151" stroke="#333" stroke-width="1.4245014245014245"></line><line x1="789.6980541424587" y1="261.8823034168332" x2="800.4276117032905" y2="253.0631294693085" stroke="#333" stroke-width="1.4245014245014245"></line><line x1="767.8423408771454" y1="237.539564060693" x2="772.8023842267221" y2="232.67918561737247" stroke="#333" stroke-width="1.4245014245014245"></line><line x1="743.9481856701298" y1="215.19430709999511" x2="752.9833036579123" y2="204.64594810369863" stroke="#333" stroke-width="1.4245014245014245"></line><line x1="718.1974374702227" y1="195.01659343264544" x2="722.2381307567082" y2="189.36875257028703" stroke="#333" stroke-width="1.4245014245014245"></line><line x1="690.7860750199521" y1="177.15998764328918" x2="697.8522259466171" y2="165.2029501485962" stroke="#333" stroke-width="1.4245014245014245"></line><line x1="661.9227153389982" y1="161.76038928409673" x2="664.9212841415722" y2="155.49669278935778" stroke="#333" stroke-width="1.4245014245014245"></line><line x1="631.8270260227055" y1="148.93499859711318" x2="636.7095084679909" y2="135.932591137747" stroke="#333" stroke-width="1.4245014245014245"></line><line x1="600.7280534390457" y1="138.78142454964916" x2="602.5933877619909" y2="132.09219167093897" stroke="#333" stroke-width="1.4245014245014245"></line><line x1="568.8624795474528" y1="131.37694197110153" x2="571.4129417529141" y2="117.72423611817936" stroke="#333" stroke-width="1.4245014245014245"></line><line x1="536.4728206062022" y1="126.77790344484185" x2="537.1482432100207" y2="119.86638313826484" stroke="#333" stroke-width="1.4245014245014245"></line><line x1="503.8055814772469" y1="125.0193104310303" x2="503.94652893936717" y2="111.13113674329065" stroke="#333" stroke-width="1.4245014245014245"></line><line x1="471.1093795753769" y1="126.11454688436947" x2="470.574368086032" y2="119.19074219704294" stroke="#333" stroke-width="1.4245014245014245"></line><line x1="438.6330527395719" y1="130.05527739412764" x2="436.3602028410375" y2="116.35362100131755" stroke="#333" stroke-width="1.4245014245014245"></line><line x1="406.62376542679453" y1="136.81151062164747" x2="404.89457589766107" y2="130.08579785538166" stroke="#333" stroke-width="1.4245014245014245"></line><line x1="375.32512764123135" y1="146.33182755254217" x2="370.7075397760917" y2="133.23300635078448" stroke="#333" stroke-width="1.4245014245014245"></line><line x1="344.97534091506446" y1="158.5437728264434" x2="342.104513894973" y2="152.22050936026636" stroke="#333" stroke-width="1.4245014245014245"></line><line x1="315.8053854509825" y1="173.35440616604234" x2="308.9833626899077" y2="161.25642120922907" stroke="#333" stroke-width="1.4245014245014245"></line><line x1="288.03726222336763" y1="190.65100970871976" x2="284.1120263386151" y2="184.92232470332567" stroke="#333" stroke-width="1.4245014245014245"></line><line x1="261.8823034168331" y1="210.30194585754134" x2="253.06312946930842" y2="199.57238829670956" stroke="#333" stroke-width="1.4245014245014245"></line><line x1="237.539564060693" y1="232.15765912285462" x2="232.67918561737247" y2="227.19761577327785" stroke="#333" stroke-width="1.4245014245014245"></line><line x1="215.19430709999511" y1="256.05181432987024" x2="204.64594810369863" y2="247.01669634208764" stroke="#333" stroke-width="1.4245014245014245"></line><line x1="195.01659343264544" y1="281.80256252977733" x2="189.36875257028703" y2="277.7618692432917" stroke="#333" stroke-width="1.4245014245014245"></line><line x1="177.15998764328918" y1="309.21392498004786" x2="165.20295014859613" y2="302.147774053383" stroke="#333" stroke-width="1.4245014245014245"></line><line x1="161.76038928409668" y1="338.07728466100195" x2="155.49669278935772" y2="335.0787158584279" stroke="#333" stroke-width="1.4245014245014245"></line><line x1="148.93499859711318" y1="368.1729739772945" x2="135.932591137747" y2="363.29049153200907" stroke="#333" stroke-width="1.4245014245014245"></line><line x1="138.78142454964916" y1="399.2719465609546" x2="132.09219167093897" y2="397.4066122380093" stroke="#333" stroke-width="1.4245014245014245"></line><line x1="131.37694197110153" y1="431.13752045254705" x2="117.72423611817936" y2="428.5870582470858" stroke="#333" stroke-width="1.4245014245014245"></line><line x1="126.77790344484185" y1="463.52717939379795" x2="119.86638313826484" y2="462.8517567899794" stroke="#333" stroke-width="1.4245014245014245"></line><line x1="125.0193104310303" y1="496.19441852275315" x2="111.13113674329065" y2="496.0534710606329" stroke="#333" stroke-width="1.4245014245014245"></line><line x1="126.11454688436947" y1="528.8906204246232" x2="119.190742197043" y2="529.4256319139681" stroke="#333" stroke-width="1.4245014245014245"></line><line x1="130.05527739412764" y1="561.3669472604281" x2="116.35362100131755" y2="563.6397971589624" stroke="#333" stroke-width="1.4245014245014245"></line><line x1="136.81151062164747" y1="593.3762345732055" x2="130.08579785538166" y2="595.1054241023389" stroke="#333" stroke-width="1.4245014245014245"></line><line x1="146.33182755254222" y1="624.6748723587687" x2="133.23300635078454" y2="629.2924602239083" stroke="#333" stroke-width="1.4245014245014245"></line><line x1="158.54377282644327" y1="655.0246590849354" x2="152.2205093602663" y2="657.8954861050267" stroke="#333" stroke-width="1.4245014245014245"></line><line x1="173.35440616604228" y1="684.1946145490175" x2="161.25642120922902" y2="691.0166373100923" stroke="#333" stroke-width="1.4245014245014245"></line><line x1="190.65100970871976" y1="711.9627377766324" x2="184.92232470332567" y2="715.8879736613849" stroke="#333" stroke-width="1.4245014245014245"></line><line x1="210.30194585754134" y1="738.1176965831669" x2="199.57238829670956" y2="746.9368705306915" stroke="#333" stroke-width="1.4245014245014245"></line><line x1="232.1576591228545" y1="762.4604359393069" x2="227.19761577327773" y2="767.3208143826273" stroke="#333" stroke-width="1.4245014245014245"></line><line x1="256.05181432987024" y1="784.8056929000048" x2="247.01669634208764" y2="795.3540518963014" stroke="#333" stroke-width="1.4245014245014245"></line><line x1="281.80256252977733" y1="804.9834065673545" x2="277.7618692432917" y2="810.6312474297129" stroke="#333" stroke-width="1.4245014245014245"></line><line x1="309.21392498004775" y1="822.8400123567108" x2="302.1477740533828" y2="834.7970498514037" stroke="#333" stroke-width="1.4245014245014245"></line><line x1="338.0772846610018" y1="838.2396107159032" x2="335.0787158584277" y2="844.5033072106421" stroke="#333" stroke-width="1.4245014245014245"></line><line x1="368.1729739772946" y1="851.0650014028868" x2="363.29049153200924" y2="864.067408862253" stroke="#333" stroke-width="1.4245014245014245"></line><line x1="399.27194656095423" y1="861.2185754503507" x2="397.4066122380089" y2="867.907808329061" stroke="#333" stroke-width="1.4245014245014245"></line><line x1="431.13752045254716" y1="868.6230580288984" x2="428.58705824708596" y2="882.2757638818207" stroke="#333" stroke-width="1.4245014245014245"></line><line x1="463.52717939379795" y1="873.2220965551581" x2="462.8517567899794" y2="880.1336168617352" stroke="#333" stroke-width="1.4245014245014245"></line><line x1="496.1944185227531" y1="874.9806895689696" x2="496.0534710606329" y2="888.8688632567093" stroke="#333" stroke-width="1.4245014245014245"></line><line x1="528.8906204246231" y1="873.8854531156305" x2="529.4256319139679" y2="880.8092578029571" stroke="#333" stroke-width="1.4245014245014245"></line><line x1="561.3669472604281" y1="869.9447226058724" x2="563.6397971589624" y2="883.6463789986824" stroke="#333" stroke-width="1.4245014245014245"></line><line x1="593.3762345732054" y1="863.1884893783526" x2="595.1054241023388" y2="869.9142021446185" stroke="#333" stroke-width="1.4245014245014245"></line><line x1="624.6748723587685" y1="853.6681724474579" x2="629.2924602239082" y2="866.7669936492156" stroke="#333" stroke-width="1.4245014245014245"></line><line x1="655.0246590849356" y1="841.4562271735566" x2="657.8954861050271" y2="847.7794906397336" stroke="#333" stroke-width="1.4245014245014245"></line><line x1="684.1946145490174" y1="826.6455938339577" x2="691.016637310092" y2="838.7435787907712" stroke="#333" stroke-width="1.4245014245014245"></line><line x1="711.9627377766325" y1="809.3489902912802" x2="715.8879736613849" y2="815.0776752966742" stroke="#333" stroke-width="1.4245014245014245"></line><line x1="738.1176965831669" y1="789.6980541424587" x2="746.9368705306915" y2="800.4276117032905" stroke="#333" stroke-width="1.4245014245014245"></line><line x1="762.460435939307" y1="767.8423408771454" x2="767.3208143826275" y2="772.8023842267221" stroke="#333" stroke-width="1.4245014245014245"></line><circle cx="500" cy="500" r="375" fill="none" stroke="#333" stroke-width="1.4245014245014245"></circle></g><g id="astrology-radix-planets"><line x1="125.23945118606207" y1="513.3989198324359" x2="132.17946134928314" y2="513.1507916873909" stroke="#333" stroke-width="1.4245014245014245"></line><line x1="132.17946134928314" y1="513.1507916873909" x2="150.2850211727366" y2="500.2907792785493" stroke="#333" stroke-width="0.7122507122507122"></line><g transform="translate(-68.76923076923076,-208.00569800569798) scale(1.4245014245014245)" id="astrology-radix-planets-Moon"><path d="m162, 490 a 7.4969283,7.4969283 0 0 1 0,14.327462 7.4969283,7.4969283 0 1 0 0,-14.327462 z" stroke="Black" stroke-width="1.8" fill="none"></path></g><text x="174.70504066861292" y="486.0339206637367" font-size="8" fill="Black" dominant-baseline="central" transform="translate(-74.16253863140548,-206.32209167776855) scale(1.4245014245014245)">12° 37' </text><text x="174.70504066861292" y="496.2089308387469" font-size="8" fill="Black" dominant-baseline="central" transform="translate(-74.16253863140548,-210.64139799137686) scale(1.4245014245014245)"></text><text x="174.70504066861292" y="506.38394101375707" font-size="8" fill="Black" dominant-baseline="central" transform="translate(-74.16253863140548,-214.96070430498517) scale(1.4245014245014245)">f</text><line x1="126.24304628821136" y1="530.5080243884112" x2="133.16447135694818" y2="529.9430609738109" stroke="#333" stroke-width="1.4245014245014245"></line><line x1="133.16447135694818" y1="529.9430609738109" x2="152.64938806949482" y2="540.598070893156" stroke="#333" stroke-width="0.7122507122507122"></line><g transform="translate(-73.86324786324786,-225.83475783475782) scale(1.4245014245014245)" id="astrology-radix-planets-Pluto"><path d="m174, 532 a 5.7676856,5.7676856 0 0 1 -2.88385,4.99496 5.7676856,5.7676856 0 0 1 -5.76768,0 5.7676856,5.7676856 0 0 1 -2.88385,-4.99496 m 5.76771,13.93858 0,-8.17088 m -3.84512,4.32576 7.69024,0" stroke="Black" stroke-width="1.8" fill="none"></path><path d="m171.7, 532 a 3.3644834,3.3644834 0 0 1 -3.36448,3.36449 3.3644834,3.3644834 0 0 1 -3.36448,-3.36449 3.3644834,3.3644834 0 0 1 3.36448,-3.36448 3.3644834,3.3644834 0 0 1 3.36448,3.36448 z" stroke="Black" stroke-width="1.8" fill="none"></path></g><text x="176.97309934147057" y="524.6993674060581" font-size="8" fill="Black" dominant-baseline="central" transform="translate(-75.12533276888637,-222.73562889886793) scale(1.4245014245014245)">15° 14' </text><text x="176.97309934147057" y="534.8743775810682" font-size="8" fill="Black" dominant-baseline="central" transform="translate(-75.12533276888637,-227.05493521247624) scale(1.4245014245014245)"></text><text x="176.97309934147057" y="545.0493877560784" font-size="8" fill="Black" dominant-baseline="central" transform="translate(-75.12533276888637,-231.37424152608457) scale(1.4245014245014245)">r</text><line x1="858.9089291091047" y1="391.3290259280078" x2="852.2624674589362" y2="393.34145137378545" stroke="#333" stroke-width="1.4245014245014245"></line><g transform="translate(-349.7891737891738,-169.8005698005698) scale(1.4245014245014245)" id="astrology-radix-planets-Mars"><path d="m824, 400 c -5.247438,-4.150623 -11.6993,3.205518 -7.018807,7.886007 4.680494,4.680488 12.036628,-1.771382 7.885999,-7.018816 z m 0,0 0.433597,0.433595 3.996566,-4.217419 m -3.239802,-0.05521 3.295015,0 0.110427,3.681507" stroke="Black" stroke-width="1.8" fill="none"></path></g><text x="831.2502345062321" y="388.53935652818933" font-size="8" fill="Black" dominant-baseline="central" transform="translate(-352.8669086650387,-164.9355103210832) scale(1.4245014245014245)">27° 25' </text><text x="831.2502345062321" y="398.7143667031995" font-size="8" fill="Black" dominant-baseline="central" transform="translate(-352.8669086650387,-169.2548166346915) scale(1.4245014245014245)"></text><text x="831.2502345062321" y="408.8893768782097" font-size="8" fill="Black" dominant-baseline="central" transform="translate(-352.8669086650387,-173.57412294829984) scale(1.4245014245014245)">d</text><line x1="610.059668293788" y1="141.51447809561216" x2="608.0215262883476" y2="148.15309887161936" stroke="#333" stroke-width="1.4245014245014245"></line><g transform="translate(-255.97435897435895,-78.95726495726495) scale(1.4245014245014245)" id="astrology-radix-planets-Chiron"><path d="m603, 186 a 3.8764725,3.0675249 0 0 1 -3.876473,3.067525 3.8764725,3.0675249 0 0 1 -3.876472,-3.067525 3.8764725,3.0675249 0 0 1 3.876472,-3.067525 3.8764725,3.0675249 0 0 1 3.876473,3.067525 z" stroke="Black" stroke-width="1.8" fill="none"></path><path d="m603, 173   -3.942997,4.243844 4.110849,3.656151 m -4.867569,-9.009468 0,11.727251" stroke="Black" stroke-width="1.8" fill="none"></path></g><text x="608.6329470532137" y="165.0585359601773" font-size="8" fill="Black" dominant-baseline="central" transform="translate(-258.36555302258927,-70.06758364121485) scale(1.4245014245014245)">23° 30' </text><text x="608.6329470532137" y="175.23354613518748" font-size="8" fill="Black" dominant-baseline="central" transform="translate(-258.36555302258927,-74.38688995482318) scale(1.4245014245014245)"></text><text x="608.6329470532137" y="185.40855631019764" font-size="8" fill="Black" dominant-baseline="central" transform="translate(-258.36555302258927,-78.70619626843147) scale(1.4245014245014245)"></text><line x1="557.8551227870331" y1="129.4898317626123" x2="556.7837316243103" y2="136.3511311744158" stroke="#333" stroke-width="1.4245014245014245"></line><g transform="translate(-231.35327635327633,-70.46723646723646) scale(1.4245014245014245)" id="astrology-radix-planets-Jupiter"><path d="m545, 166 c -0.43473,0 -1.30422,-0.40572 -1.30422,-2.02857 0,-1.62285 1.73897,-3.2457 3.47792,-3.2457 1.73897,0 3.47792,1.21715 3.47792,4.05713 0,2.83999 -2.1737,7.30283 -6.52108,7.30283 m 12.17269,0 -12.60745,0 m 9.99902,-11.76567 0,15.82279" stroke="Black" stroke-width="1.8" fill="none"></path></g><text x="561.9314448050056" y="154.3014449386333" font-size="8" fill="Black" dominant-baseline="central" transform="translate(-238.54069879186846,-65.50118317907794) scale(1.4245014245014245)">1° 42' </text><text x="561.9314448050056" y="164.47645511364348" font-size="8" fill="Black" dominant-baseline="central" transform="translate(-238.54069879186846,-69.82048949268626) scale(1.4245014245014245)"></text><text x="561.9314448050056" y="174.65146528865364" font-size="8" fill="Black" dominant-baseline="central" transform="translate(-238.54069879186846,-74.13979580629456) scale(1.4245014245014245)"></text><line x1="468.8057773721222" y1="126.29969163159313" x2="469.3834481615273" y2="133.2200677124896" stroke="#333" stroke-width="1.4245014245014245"></line><g transform="translate(-201.63817663817662,-74.71225071225071) scale(1.4245014245014245)" id="astrology-radix-planets-Venus"><path d="m475, 176 -4.937669,0.03973 m 2.448972,2.364607 0,-5.79014 c -3.109546,-0.0085 -5.624617,-2.534212 -5.620187,-5.64208 0.0044,-3.107706 2.526514,-5.621689 5.635582,-5.621689 3.109068,0 5.631152,2.513983 5.635582,5.621689 0.0044,3.107868 -2.510641,5.633586 -5.620187,5.64208" stroke="Black" stroke-width="1.8" fill="none"></path></g><text x="482.26906742528473" y="151.44758738552778" font-size="8" fill="Black" dominant-baseline="central" transform="translate(-204.72390611500688,-64.28971658246051) scale(1.4245014245014245)">15° 21' </text><text x="482.26906742528473" y="161.62259756053797" font-size="8" fill="Black" dominant-baseline="central" transform="translate(-204.72390611500688,-68.60902289606882) scale(1.4245014245014245)"></text><text x="482.26906742528473" y="171.79760773554813" font-size="8" fill="Black" dominant-baseline="central" transform="translate(-204.72390611500688,-72.92832920967712) scale(1.4245014245014245)"></text><line x1="357.226055519939" y1="153.24273507595484" x2="359.87001745475493" y2="159.66416590788162" stroke="#333" stroke-width="1.4245014245014245"></line><g transform="translate(-157.4900284900285,-75.56125356125355) scale(1.4245014245014245)" id="astrology-radix-planets-Sun"><path d="m371, 178 -2.18182,0.727268 -2.181819,1.454543 -1.454552,2.18182 -0.727268,2.181819 0,2.181819 0.727268,2.181819 1.454552,2.18182 2.181819,1.454544 2.18182,0.727276 2.18181,0 2.18182,-0.727276 2.181819,-1.454544 1.454552,-2.18182 0.727268,-2.181819 0,-2.181819 -0.727268,-2.181819 -1.454552,-2.18182 -2.181819,-1.454543 -2.18182,-0.727268 -2.18181,0 m 0.727267,6.54545 -0.727267,0.727276 0,0.727275 0.727267,0.727268 0.727276,0 0.727267,-0.727268 0,-0.727275 -0.727267,-0.727276 -0.727276,0 m 0,0.727276 0,0.727275 0.727276,0 0,-0.727275 -0.727276,0" stroke="Black" stroke-width="1.8" fill="none"></path></g><text x="382.4513105546707" y="175.55048095113912" font-size="8" fill="Black" dominant-baseline="central" transform="translate(-162.3511261328944,-74.52142923566873) scale(1.4245014245014245)">2° 57' </text><text x="382.4513105546707" y="185.7254911261493" font-size="8" fill="Black" dominant-baseline="central" transform="translate(-162.3511261328944,-78.84073554927706) scale(1.4245014245014245)"></text><text x="382.4513105546707" y="195.90050130115947" font-size="8" fill="Black" dominant-baseline="central" transform="translate(-162.3511261328944,-83.16004186288535) scale(1.4245014245014245)">f</text><line x1="244.48937658536053" y1="225.51990723868101" x2="249.22105479674275" y2="230.60287191944616" stroke="#333" stroke-width="1.4245014245014245"></line><g transform="translate(-114.19088319088318,-112.06837606837607) scale(1.4245014245014245)" id="astrology-radix-planets-Mercury"><path d="m269, 264 4.26011,0 m -2.13005,-2.98207 0,5.11213 m 4.70312,-9.7983 a 4.70315,4.70315 0 0 1 -4.70315,4.70314 4.70315,4.70315 0 0 1 -4.70314,-4.70314 4.70315,4.70315 0 0 1 4.70314,-4.70315 4.70315,4.70315 0 0 1 4.70315,4.70315 z" stroke="Black" stroke-width="1.8" fill="none"></path><path d="m275, 248 a 3.9717855,3.9717855 0 0 1 -3.95541,3.59054 3.9717855,3.9717855 0 0 1 -3.95185,-3.59445" stroke="Black" stroke-width="1.8" fill="none"></path></g><text x="281.5985550405464" y="240.20869194571466" font-size="8" fill="Black" dominant-baseline="central" transform="translate(-119.53898775225473,-101.96893190857972) scale(1.4245014245014245)">23° 31' </text><text x="281.5985550405464" y="250.38370212072485" font-size="8" fill="Black" dominant-baseline="central" transform="translate(-119.53898775225473,-106.28823822218803) scale(1.4245014245014245)">R</text><text x="281.5985550405464" y="260.558712295735" font-size="8" fill="Black" dominant-baseline="central" transform="translate(-119.53898775225473,-110.60754453579634) scale(1.4245014245014245)">e</text><line x1="153.349733721054" y1="643.0335376362336" x2="159.7691830965901" y2="640.3847684207478" stroke="#333" stroke-width="1.4245014245014245"></line><g transform="translate(-81.92877492877493,-269.1339031339031) scale(1.4245014245014245)" id="astrology-radix-planets-Lilith"><path d="m193, 634 -2.525435,-1.12853 -1.464752,-1.79539 -0.808138,-2.20576 0.151526,-2.05188 0.909156,-1.5389 1.010173,-1.02593 0.909157,-0.56427 1.363735,-0.61556 m 2.315327,-0.39055 -1.716301,0.54716 -1.7163,1.09431 -1.1442,1.64146 -0.572102,1.64146 0,1.64146 0.572102,1.64147 1.1442,1.64145 1.7163,1.09432 1.716301,0.54715 m 0,-11.49024 -2.2884,0 -2.288401,0.54716 -1.716302,1.09431 -1.144201,1.64146 -0.5721,1.64146 0,1.64146 0.5721,1.64147 1.144201,1.64145 1.716302,1.09432 2.288401,0.54715 2.2884,0 m -4.36712,-0.4752 0,6.44307 m -2.709107,-3.41101 5.616025,0" stroke="Black" stroke-width="1.8" fill="none"></path></g><text x="200.06622495680784" y="613.7109140107617" font-size="8" fill="Black" dominant-baseline="central" transform="translate(-84.92839748878737,-260.5211572296396) scale(1.4245014245014245)">3° 0' </text><text x="200.06622495680784" y="623.8859241857718" font-size="8" fill="Black" dominant-baseline="central" transform="translate(-84.92839748878737,-264.84046354324784) scale(1.4245014245014245)"></text><text x="200.06622495680784" y="634.0609343607821" font-size="8" fill="Black" dominant-baseline="central" transform="translate(-84.92839748878737,-269.1597698568562) scale(1.4245014245014245)"></text><line x1="285.8391535477234" y1="807.8313366875511" x2="289.8050951486915" y2="802.1307563785224" stroke="#333" stroke-width="1.4245014245014245"></line><g transform="translate(-127.77492877492877,-324.7435897435897) scale(1.4245014245014245)" id="astrology-radix-planets-Uranus"><path d="m301, 765  0,10.23824 m 10.23633,-10.32764 0,10.23824 m -10.26606,-4.6394 10.23085,0 m -5.06415,-5.51532 0,11.94985" stroke="Black" stroke-width="1.8" fill="none"></path><path d="m308, 779.5 a 1.8384377,1.8384377 0 0 1 -1.83844,1.83843 1.8384377,1.8384377 0 0 1 -1.83842,-1.83843 1.8384377,1.8384377 0 0 1 1.83842,-1.83844 1.8384377,1.8384377 0 0 1 1.83844,1.83844 z" stroke="Black" stroke-width="1.8" fill="none"></path></g><text x="318.58952360516736" y="761.1368652988349" font-size="8" fill="Black" dominant-baseline="central" transform="translate(-135.24170660162375,-323.10368355990425) scale(1.4245014245014245)">5° 45' </text><text x="318.58952360516736" y="771.311875473845" font-size="8" fill="Black" dominant-baseline="central" transform="translate(-135.24170660162375,-327.42298987351256) scale(1.4245014245014245)">R</text><text x="318.58952360516736" y="781.4868856488553" font-size="8" fill="Black" dominant-baseline="central" transform="translate(-135.24170660162375,-331.74229618712087) scale(1.4245014245014245)"></text><line x1="320.65055381913464" y1="829.330800494908" x2="323.971839859521" y2="823.2320819672245" stroke="#333" stroke-width="1.4245014245014245"></line><g transform="translate(-146.02849002849,-334.0826210826211) scale(1.4245014245014245)" id="astrology-radix-planets-Neptune"><path d="m344, 787 1.77059,-2.36312 2.31872,1.8045 m -14.44264,-0.20006 2.34113,-1.77418 1.74085,2.38595 m -1.80013,-1.77265 c -1.23776,8.40975 0.82518,9.67121 4.95106,9.67121 4.12589,0 6.18883,-1.26146 4.95107,-9.67121 m -7.05334,3.17005 2.03997,-2.12559 2.08565,2.07903 m -5.32406,9.91162 6.60142,0 m -3.30071,-12.19414 0,15.55803" stroke="Black" stroke-width="1.8" fill="none"></path></g><text x="349.73134607019045" y="780.3700038615417" font-size="8" fill="Black" dominant-baseline="central" transform="translate(-148.46145459959652,-331.26817827740655) scale(1.4245014245014245)">12° 0' </text><text x="349.73134607019045" y="790.5450140365518" font-size="8" fill="Black" dominant-baseline="central" transform="translate(-148.46145459959652,-335.58748459101486) scale(1.4245014245014245)">R</text><text x="349.73134607019045" y="800.7200242115621" font-size="8" fill="Black" dominant-baseline="central" transform="translate(-148.46145459959652,-339.9067909046232) scale(1.4245014245014245)"></text><line x1="363.99997405671115" y1="849.46958800935" x2="366.518493055661" y2="842.9979289721398" stroke="#333" stroke-width="1.4245014245014245"></line><g transform="translate(-163.4330484330484,-351.06267806267806) scale(1.4245014245014245)" id="astrology-radix-planets-Saturn"><path d="m385, 827 c -0.52222,0.52221 -1.04445,1.04444 -1.56666,1.04444 -0.52222,0 -1.56667,-0.52223 -1.56667,-1.56667 0,-1.04443 0.52223,-2.08887 1.56667,-3.13332 1.04444,-1.04443 2.08888,-3.13331 2.08888,-5.22219 0,-2.08888 -1.04444,-4.17776 -3.13332,-4.17776 -1.97566,0 -3.65555,1.04444 -4.69998,3.13333 m -2.55515,-5.87499 6.26664,0 m -3.71149,-2.48054 0,15.14438" stroke="Black" stroke-width="1.8" fill="none"></path></g><text x="388.51116930266636" y="798.3858992448316" font-size="8" fill="Black" dominant-baseline="central" transform="translate(-164.92354480369596,-338.9159515312818) scale(1.4245014245014245)">19° 19' </text><text x="388.51116930266636" y="808.5609094198418" font-size="8" fill="Black" dominant-baseline="central" transform="translate(-164.92354480369596,-343.2352578448901) scale(1.4245014245014245)">R</text><text x="388.51116930266636" y="818.735919594852" font-size="8" fill="Black" dominant-baseline="central" transform="translate(-164.92354480369596,-347.5545641584984) scale(1.4245014245014245)">r</text><line x1="476.4263818287979" y1="874.2583125680957" x2="476.8629303134498" y2="867.3276030760939" stroke="#333" stroke-width="1.4245014245014245"></line><g transform="translate(-202.06267806267806,-356.15669515669515) scale(1.4245014245014245)" id="astrology-radix-planets-NNode"><path d="m476, 839 -1.3333334,-0.6666667 -0.6666666,0 -1.3333334,0.6666667 -0.6666667,1.3333333 0,0.6666667 0.6666667,1.3333333 1.3333334,0.6666667 0.6666666,0 1.3333334,-0.6666667 0.6666666,-1.3333333 0,-0.6666667 -0.6666666,-1.3333333 -2,-2.66666665 -0.6666667,-1.99999995 0,-1.3333334 0.6666667,-2 1.3333333,-1.3333333 2,-0.6666667 2.6666666,0 2,0.6666667 1.3333333,1.3333333 0.6666667,2 0,1.3333334 -0.6666667,1.99999995 -2,2.66666665 -0.6666666,1.3333333 0,0.6666667 0.6666666,1.3333333 1.3333334,0.6666667 0.6666666,0 1.3333334,-0.6666667 0.6666667,-1.3333333 0,-0.6666667 -0.6666667,-1.3333333 -1.3333334,-0.6666667 -0.6666666,0 -1.3333334,0.6666667 m -7.9999999,-6 0.6666667,-1.3333333 1.3333333,-1.3333333 2,-0.6666667 2.6666666,0 2,0.6666667 1.3333333,1.3333333 0.6666667,1.3333333" stroke="Black" stroke-width="1.8" fill="none"></path></g><text x="489.0863603010573" y="820.5615673686099" font-size="8" fill="Black" dominant-baseline="central" transform="translate(-207.61785665201577,-348.32955423909647) scale(1.4245014245014245)">6° 58' </text><text x="489.0863603010573" y="830.73657754362" font-size="8" fill="Black" dominant-baseline="central" transform="translate(-207.61785665201577,-352.6488605527048) scale(1.4245014245014245)">R</text><text x="489.0863603010573" y="840.9115877186302" font-size="8" fill="Black" dominant-baseline="central" transform="translate(-207.61785665201577,-356.9681668663131) scale(1.4245014245014245)"></text></g><g id="astrology-radix-cusps"><line x1="277.77777777777777" y1="500" x2="178.7749287749288" y2="499.99999999999994" stroke="#333" stroke-width="2.2792022792022792"></line><line x1="136.03988603988608" y1="499.99999999999994" x2="125" y2="499.99999999999994" stroke="#333" stroke-width="2.2792022792022792"></line><g transform="translate(-115.03988603988603,-235.17378917378915) scale(1.4245014245014245)"><path d="m271, 554 -2.5128753,7.7578884 1.00515009,0 m 3.01545031,-9.5832737 -1.0051501,1.8253853 -2.51287527,7.7578884 m 3.51802537,-9.5832737 -3.01545031,9.5832737 m 3.01545031,-9.5832737 -1.5077251,1.3690388 -1.50772521,0.9126929 -1.00515009,0.4563463 m 2.5128753,-0.9126927 -1.00515016,0.4563464 -1.50772514,0.4563463" stroke="#333" stroke-width="1.4245014245014245" fill="none"></path></g><line x1="304.96133305503895" y1="606.5018048941673" x2="218.06910643532882" y2="653.9497243822739" stroke="#333" stroke-width="1.4245014245014245"></line><line x1="180.56167048437482" y1="674.4308407080754" x2="170.87224953037833" y2="679.7217957589074" stroke="#333" stroke-width="1.4245014245014245"></line><g transform="translate(-143.05698005698005,-284.4159544159544) scale(1.4245014245014245)"><path d="m337, 670 0,-0.4545454 0.4545454,0 0,0.9090909 -0.9090909,0 0,-0.9090909 0.4545455,-0.9090909 0.4545454,-0.4545455 1.36363637,-0.4545454 1.36363633,0 1.3636364,0.4545454 0.4545455,0.9090909 0,0.9090909 -0.4545455,0.909091 -0.9090909,0.9090909 -4.5454546,2.72727269 -0.9090909,0.90909091 -0.9090909,1.8181818 m 6.8181818,-9.0909091 0.4545455,0.9090909 0,0.9090909 -0.4545455,0.909091 -0.9090909,0.9090909 -1.36363633,0.9090909 m 1.36363633,-5 0.4545455,0.4545454 0.4545454,0.9090909 0,0.9090909 -0.4545454,0.909091 -0.9090909,0.9090909 -3.6363637,2.72727269 m -1.3636363,1.81818181 0.4545454,-0.4545454 0.9090909,0 2.27272732,0.4545454 2.27272728,0 0.4545454,-0.4545454 m -5,0 2.27272732,0.9090909 2.27272728,0 m -4.5454546,-0.9090909 2.27272732,1.3636363 1.36363638,0 0.9090909,-0.4545454 0.4545454,-0.9090909 0,-0.4545455" stroke="#333" stroke-width="1.4245014245014245" fill="none"></path></g><line x1="410.0953921749922" y1="703.2237130386468" x2="370.041736765774" y2="793.7624826295823" stroke="#333" stroke-width="1.4245014245014245"></line><line x1="352.7523891071187" y1="832.8439659062452" x2="348.2859742952993" y2="842.9400157527165" stroke="#333" stroke-width="1.4245014245014245"></line><g transform="translate(-204.6096866096866,-310.7350427350427) scale(1.4245014245014245)"><path d="m482, 732 0,-0.4545454 0.45454549,0 0,0.9090909 -0.90909089,0 0,-0.9090909 0.4545454,-0.9090909 0.45454549,-0.4545455 1.36363636,-0.4545454 1.36363635,0 1.3636364,0.4545454 0.4545454,0.9090909 0,0.9090909 -0.4545454,0.909091 -0.4545455,0.4545454 -0.9090909,0.4545455 -1.36363635,0.4545454 m 2.27272725,-4.0909091 0.4545455,0.9090909 0,0.9090909 -0.4545455,0.909091 -0.4545454,0.4545454 m -0.4545455,-3.6363636 0.4545455,0.4545454 0.4545454,0.9090909 0,0.9090909 -0.4545454,0.909091 -0.9090909,0.9090909 -0.90909095,0.4545454 m -0.9090909,0 0.9090909,0 1.36363635,0.4545455 0.4545455,0.45454542 0.4545454,0.90909091 0,1.36363637 -0.4545454,0.9090909 -0.9090909,0.4545455 -1.3636364,0.4545454 -1.3636364,0 -1.3636363,-0.4545454 -0.4545455,-0.4545455 -0.4545454,-0.9090909 0,-0.90909091 0.9090909,0 0,0.90909091 -0.4545455,0 0,-0.45454546 m 5,-1.81818182 0.4545455,0.90909091 0,1.36363637 -0.4545455,0.9090909 m -1.36363635,-4.0909091 0.90909095,0.4545455 0.4545454,0.90909088 0,1.81818182 -0.4545454,0.9090909 -0.45454549,0.4545455 -0.90909091,0.4545454" stroke="#333" stroke-width="1.4245014245014245" fill="none"></path></g><line x1="563.6537289115752" y1="712.9105888513636" x2="592.0122812151294" y2="807.7649858075802" stroke="#333" stroke-width="2.2792022792022792"></line><line x1="604.2533829288939" y1="848.7093298174577" x2="607.4156675382831" y2="859.2866186866761" stroke="#333" stroke-width="2.2792022792022792"></line><g transform="translate(-267.011396011396,-294.1794871794872) scale(1.4245014245014245)"><path d="m629, 693 -2.28678383,7.7750651 0.91471356,0 m 2.74414057,-9.6044922 -0.9147135,1.8294271 -2.28678386,7.7750651 m 3.20149736,-9.6044922 -2.74414057,9.6044922 m 2.74414057,-9.6044922 -7.3177083,6.8603516 7.3177083,0" stroke="#333" stroke-width="1.4245014245014245" fill="none"></path></g><line x1="667.4586081116463" y1="646.0833002731413" x2="742.063564930617" y2="711.1652834076498" stroke="#333" stroke-width="1.4245014245014245"></line><line x1="774.267143413626" y1="739.2582257678692" x2="782.5864011884032" y2="746.515569210926" stroke="#333" stroke-width="1.4245014245014245"></line><g transform="translate(-298.4245014245014,-258.5213675213675) scale(1.4245014245014245)"><path d="m703, 609 -2.27272725,4.5454545 m 2.27272725,-4.5454545 4.54545455,0 m -4.54545455,0.4545454 3.63636365,0 m -4.0909091,0.4545455 2.2727273,0 1.8181818,-0.4545455 0.9090909,-0.4545454 m -6.8181818,4.5454545 0.4545454,-0.4545454 1.3636364,-0.4545455 1.36363636,0 1.36363634,0.4545455 0.4545455,0.4545454 0.4545454,0.90909092 0,1.36363638 -0.4545454,1.3636364 -0.9090909,0.9090909 -1.81818185,0.4545454 -1.36363635,0 -0.9090909,-0.4545454 -0.4545455,-0.4545455 -0.4545454,-0.9090909 0,-0.9090909 0.9090909,0 0,0.9090909 -0.4545455,0 0,-0.45454545 m 5,-2.72727275 0.4545455,0.90909092 0,1.36363638 -0.4545455,1.3636364 -0.9090909,0.9090909 m -0.45454544,-5.4545455 0.90909094,0.4545455 0.4545454,0.9090909 0,1.8181818 -0.4545454,1.3636364 -0.90909094,0.9090909 -0.90909091,0.4545454" stroke="#333" stroke-width="1.4245014245014245" fill="none"></path></g><line x1="711.7987820236126" y1="567.2606272844444" x2="857.4104446648464" y2="613.5023085424998" stroke="#333" stroke-width="1.4245014245014245"></line><g transform="translate(-313.28205128205127,-225.83475783475782) scale(1.4245014245014245)"><path d="m738, 532 0,-0.4545455 -0.4545455,0 0,0.9090909 0.9090909,0 0,-0.9090909 -0.4545454,-0.9090909 -0.909091,-0.4545454 -1.3636363,0 -1.36363638,0.4545454 -0.90909092,0.9090909 -0.9090909,1.3636364 -0.4545455,1.3636364 -0.4545454,1.81818178 0,1.36363636 0.4545454,1.36363636 0.4545455,0.4545455 0.9090909,0.4545454 1.36363637,0 1.36363633,-0.4545454 0.9090909,-0.9090909 0.4545455,-0.90909096 0,-1.36363636 -0.4545455,-0.90909088 -0.4545454,-0.4545455 -0.9090909,-0.4545454 -1.36363638,0 -0.90909092,0.4545454 -0.4545454,0.4545455 -0.4545455,0.90909088 m 1.36363636,-4.54545458 -0.90909086,1.3636364 -0.4545455,1.3636364 -0.4545455,1.81818178 0,1.81818182 0.4545455,0.9090909 m 4.0909091,-0.4545454 0.4545454,-0.90909096 0,-1.36363636 -0.4545454,-0.90909088 m -0.9090909,-5 -0.90909093,0.4545454 -0.90909091,1.3636364 -0.45454546,0.9090909 -0.4545454,1.3636364 -0.4545455,1.81818178 0,2.27272732 0.4545455,0.9090909 0.4545454,0.4545454 m 1.36363637,0 0.90909093,-0.4545454 0.4545454,-0.4545455 0.4545455,-1.36363636 0,-1.81818182 -0.4545455,-0.90909092 -0.4545454,-0.4545454" stroke="#333" stroke-width="1.4245014245014245" fill="none"></path></g><line x1="722.2222222222222" y1="500" x2="875" y2="500" stroke="#333" stroke-width="2.2792022792022792"></line><g transform="translate(-306.9145299145299,-185.08262108262107) scale(1.4245014245014245)"><path d="m723, 436 -0.9090909,2.7272727 m 6.8181818,-2.7272727 -0.4545454,1.3636363 -0.909091,1.3636364 -1.8181818,2.2727273 -0.90909088,1.36363633 -0.45454546,1.36363637 -0.45454545,1.8181818 m 0.90909091,-3.63636362 -0.90909091,1.81818182 -0.45454546,1.8181818 m 4.09090905,-6.8181818 -2.72727268,2.72727272 -0.90909091,1.36363637 -0.45454546,0.90909091 -0.45454545,1.8181818 0.90909091,0 m -1.36363641,-8.1818182 1.36363641,-1.3636363 0.90909091,0 2.27272728,1.3636363 m -3.63636365,-0.9090909 1.36363637,0 2.27272728,0.9090909 m -4.5454546,0 0.90909095,-0.4545454 1.36363637,0 2.27272728,0.4545454 0.9090909,0 0.4545455,-0.4545454 0.4545454,-0.9090909" stroke="#333" stroke-width="1.4245014245014245" fill="none"></path></g><line x1="695.038666944961" y1="393.49819510583274" x2="829.1277504696218" y2="320.27820424109274" stroke="#333" stroke-width="1.4245014245014245"></line><g transform="translate(-279.74643874643874,-135.41595441595442) scale(1.4245014245014245)"><path d="m659, 319 -1.3631244,0.4543748 -0.4543748,0.4543748 -0.4543748,0.9087496 0,1.3631244 0.4543748,0.9087496 0.9087496,0.4543748 1.3631244,0 1.3631244,-0.4543748 0.9087496,-0.4543748 0.4543748,-0.9087496 0,-1.3631244 -0.4543748,-0.9087496 -0.9087496,-0.4543748 -1.8174992,0 m 0.9087496,0 -2.271874,0.4543748 m 0,0.4543748 -0.4543748,0.9087496 0,1.8174992 0.4543748,0.4543748 m -0.4543748,0 1.3631244,0.4543748 m 0.4543748,0 1.8174992,-0.4543748 m 0.4543748,-0.4543748 0.4543748,-0.9087496 0,-1.3631244 -0.4543748,-0.9087496 m 0.4543748,0 -1.8174992,-0.4543748 m -0.9087496,0 -0.9087496,0.9087496 -0.4543748,0.9087496 0,1.8174992 0.4543748,0.9087496 m 1.3631244,0 0.9087496,-0.4543748 0.4543748,-0.4543748 0.4543748,-0.9087496 0,-1.8174992 -0.4543748,-0.9087496 m -2.7262488,4.543748 -1.8174992,0.4543748 -0.9087496,0.90874964 -0.4543748,0.9087496 0,1.36312436 0.4543748,0.9087496 1.3631244,0.4543748 1.8174992,0 1.8174992,-0.4543748 0.4543748,-0.4543748 0.4543748,-0.9087496 0,-1.36312436 -0.4543748,-0.9087496 -0.4543748,-0.45437484 -0.9087496,-0.4543748 m -0.9087496,0 -2.271874,0.4543748 m 0.4543748,0 -0.9087496,0.90874964 -0.4543748,0.9087496 0,1.36312436 0.4543748,0.9087496 m -0.4543748,0 2.271874,0.4543748 2.7262488,-0.4543748 m 0,-0.4543748 0.4543748,-0.9087496 0,-1.36312436 -0.4543748,-0.9087496 m 0,-0.45437484 -1.3631244,-0.4543748 m -0.9087496,0 -0.9087496,0.4543748 -0.9087496,0.90874964 -0.4543748,0.9087496 0,1.36312436 0.4543748,0.9087496 0.4543748,0.4543748 m 1.8174992,0 0.9087496,-0.4543748 0.4543748,-0.4543748 0.4543748,-0.9087496 0,-1.81749916 -0.4543748,-0.90874964 -0.4543748,-0.4543748" stroke="#333" stroke-width="1.4245014245014245" fill="none"></path></g><line x1="589.9046078250076" y1="296.7762869613531" x2="629.9582632342258" y2="206.23751737041755" stroke="#333" stroke-width="1.4245014245014245"></line><line x1="647.2476108928811" y1="167.15603409375467" x2="651.7140257047004" y2="157.0599842472834" stroke="#333" stroke-width="1.4245014245014245"></line><g transform="translate(-219.04273504273502,-110.79487179487178) scale(1.4245014245014245)"><path d="m516, 261 -0.4545455,0.9090909 -0.4545454,0.4545455 -0.9090909,0.45454542 -1.36363638,0 -0.90909092,-0.45454542 -0.4545454,-0.4545455 -0.4545455,-0.9090909 0,-1.3636364 0.4545455,-0.9090909 0.90909086,-0.9090909 1.36363637,-0.4545454 1.36363637,0 0.9090909,0.4545454 0.4545455,0.4545455 0.4545454,1.3636363 0,1.3636364 -0.4545454,1.81818182 -0.4545455,1.36363637 -0.9090909,1.36363641 -0.9090909,0.9090909 -1.36363638,0.4545454 -1.36363632,0 -0.909091,-0.4545454 -0.4545454,-0.9090909 0,-0.90909096 0.9090909,0 0,0.90909096 -0.4545455,0 0,-0.4545455 m 1.3636364,-3.1818182 -0.4545454,-0.9090909 0,-1.3636364 0.4545454,-0.9090909 m 4.0909091,-0.4545454 0.4545455,0.9090909 0,1.8181818 -0.4545455,1.81818182 -0.4545455,1.36363637 -0.9090909,1.36363641 m -1.81818178,-2.72727278 -0.45454546,-0.45454542 -0.45454546,-0.9090909 0,-1.8181819 0.45454546,-1.3636363 0.45454546,-0.4545455 0.90909091,-0.4545454 m 1.36363637,0 0.4545454,0.4545454 0.4545455,0.9090909 0,2.2727273 -0.4545455,1.81818182 -0.4545454,1.36363637 -0.4545455,0.90909091 -0.90909087,1.3636364 -0.90909091,0.4545454" stroke="#333" stroke-width="1.4245014245014245" fill="none"></path></g><line x1="436.3462710884251" y1="287.08941114863626" x2="407.98771878487094" y2="192.23501419241973" stroke="#333" stroke-width="2.2792022792022792"></line><line x1="395.7466170711066" y1="151.2906701825421" x2="392.5843324617174" y2="140.71338131332368" stroke="#333" stroke-width="2.2792022792022792"></line><g transform="translate(-156.2165242165242,-125.65242165242165) scale(1.4245014245014245)"><path d="m368, 296 -2.28795747,7.7790553 0.91518297,0 m 2.7455489,-9.6094213 -0.9151829,1.830366 -2.28795748,7.7790553 m 3.20314038,-9.6094213 -2.7455489,9.6094213 m 2.7455489,-9.6094213 -1.3727744,1.3727745 -1.3727745,0.915183 -0.91518297,0.4575915 m 2.28795747,-0.915183 -0.91518301,0.4575915 -1.37277446,0.4575915" stroke="#333" stroke-width="1.4245014245014245" fill="none"></path><path d="m374.5, 294.5 -1.36363638,0.4545454 -0.90909092,0.9090909 -0.9090909,1.3636364 -0.4545455,1.3636364 -0.4545454,1.81818178 0,1.36363636 0.4545454,1.36363636 0.4545455,0.4545455 0.9090909,0.4545454 0.90909092,0 1.36363638,-0.4545454 0.9090909,-0.9090909 0.9090909,-1.36363641 0.4545455,-1.36363637 0.4545454,-1.81818182 0,-1.3636364 -0.4545454,-1.3636363 -0.4545455,-0.4545455 -0.9090909,-0.4545454 -0.9090909,0 m -1.36363638,0.9090909 -0.90909092,0.9090909 -0.4545454,0.9090909 -0.4545455,1.3636364 -0.4545455,1.81818178 0,1.81818182 0.4545455,0.9090909 m 3.1818182,0 0.9090909,-0.9090909 0.4545454,-0.90909091 0.4545455,-1.36363637 0.4545455,-1.81818182 0,-1.8181818 -0.4545455,-0.9090909 m -1.8181818,-0.9090909 -0.90909093,0.4545454 -0.90909091,1.3636364 -0.45454546,0.9090909 -0.4545454,1.3636364 -0.4545455,1.81818178 0,2.27272732 0.4545455,0.9090909 0.4545454,0.4545454 m 0.90909092,0 0.90909091,-0.4545454 0.90909087,-1.3636364 0.4545455,-0.90909091 0.4545454,-1.36363637 0.4545455,-1.81818182 0,-2.2727273 -0.4545455,-0.9090909 -0.4545454,-0.4545454" stroke="#333" stroke-width="1.4245014245014245" fill="none"></path></g><line x1="332.5413918883536" y1="353.9166997268587" x2="257.936435069383" y2="288.83471659235033" stroke="#333" stroke-width="1.4245014245014245"></line><line x1="225.73285658637406" y1="260.7417742321308" x2="217.41359881159673" y2="253.48443078907408" stroke="#333" stroke-width="1.4245014245014245"></line><g transform="translate(-123.10541310541309,-161.3105413105413) scale(1.4245014245014245)"><path d="m290, 380 -2.28795747,7.7790553 0.91518297,0 m 2.7455489,-9.6094213 -0.9151829,1.830366 -2.28795748,7.7790553 m 3.20314038,-9.6094213 -2.7455489,9.6094213 m 2.7455489,-9.6094213 -1.3727744,1.3727745 -1.3727745,0.915183 -0.91518297,0.4575915 m 2.28795747,-0.915183 -0.91518301,0.4575915 -1.37277446,0.4575915" stroke="#333" stroke-width="1.4245014245014245" fill="none"></path><path d="m296, 380 -2.28795747,7.7790553 0.91518297,0 m 2.7455489,-9.6094213 -0.9151829,1.830366 -2.28795748,7.7790553 m 3.20314038,-9.6094213 -2.7455489,9.6094213 m 2.7455489,-9.6094213 -1.3727744,1.3727745 -1.3727745,0.915183 -0.91518297,0.4575915 m 2.28795747,-0.915183 -0.91518301,0.4575915 -1.37277446,0.4575915" stroke="#333" stroke-width="1.4245014245014245" fill="none"></path></g><line x1="288.2012179763873" y1="432.7393727155558" x2="142.5895553351536" y2="386.4976914575004" stroke="#333" stroke-width="1.4245014245014245"></line><g transform="translate(-111.21937321937321,-195.27065527065525) scale(1.4245014245014245)"><path d="m262, 460 -2.28795747,7.7790553 0.91518297,0 m 2.7455489,-9.6094213 -0.9151829,1.830366 -2.28795748,7.7790553 m 3.20314038,-9.6094213 -2.7455489,9.6094213 m 2.7455489,-9.6094213 -1.3727744,1.3727745 -1.3727745,0.915183 -0.91518297,0.4575915 m 2.28795747,-0.915183 -0.91518301,0.4575915 -1.37277446,0.4575915" stroke="#333" stroke-width="1.4245014245014245" fill="none"></path><path d="m266, 461 0,-0.4545454 0.4545454,0 0,0.9090909 -0.9090909,0 0,-0.9090909 0.4545455,-0.9090909 0.4545454,-0.4545455 1.36363637,-0.4545454 1.36363633,0 1.3636364,0.4545454 0.4545455,0.9090909 0,0.9090909 -0.4545455,0.909091 -0.9090909,0.9090909 -4.5454546,2.72727269 -0.9090909,0.90909091 -0.9090909,1.8181818 m 6.8181818,-9.0909091 0.4545455,0.9090909 0,0.9090909 -0.4545455,0.909091 -0.9090909,0.9090909 -1.36363633,0.9090909 m 1.36363633,-5 0.4545455,0.4545454 0.4545454,0.9090909 0,0.9090909 -0.4545454,0.909091 -0.9090909,0.9090909 -3.6363637,2.72727269 m -1.3636363,1.81818181 0.4545454,-0.4545454 0.9090909,0 2.27272732,0.4545454 2.27272728,0 0.4545454,-0.4545454 m -5,0 2.27272732,0.9090909 2.27272728,0 m -4.5454546,-0.9090909 2.27272732,1.3636363 1.36363638,0 0.9090909,-0.4545454 0.4545454,-0.9090909 0,-0.4545455" stroke="#333" stroke-width="1.4245014245014245" fill="none"></path></g></g><g id="astrology-radix-axis"><line x1="55.55555555555554" y1="499.99999999999994" x2="41.66666666666663" y2="499.99999999999994" stroke="#333" stroke-width="2.2792022792022792"></line><g transform="translate(-12.735042735042734,-210.97720797720797) scale(1.4245014245014245)"><path d="m 30, 497 -0.563078,-1.1261527 -1.689228,-0.5630765 -1.689229,0 -1.68923,0.5630765 -0.563076,1.1261527 0.563076,1.12615272 1.126154,0.56307636 2.815381,0.56307635 1.126152,0.56307647 0.563078,1.1261526 0,0.5630763 -0.563078,1.1261528 -1.689228,0.5630764 -1.689229,0 -1.68923,-0.5630764 -0.563076,-1.1261528 m -6.756916,-10.135374 -4.504611,11.8246032 m 4.504611,-11.8246032 4.504611,11.8246032 m -7.3199925,-3.94153457 5.6307625,0" stroke="#333" stroke-width="2.2792022792022792" fill="none"></path></g><line x1="627.3074578231502" y1="925.8211777027273" x2="631.2858158801237" y2="939.1280895059376" stroke="#333" stroke-width="2.2792022792022792"></line><g transform="translate(-274.65242165242165,-407.5213675213675) scale(1.4245014245014245)"><path d="m 647, 960 -1.208852,-1.2088514 -1.208851,-0.6044258 -1.813278,0 -1.208852,0.6044258 -1.20885,1.2088514 -0.604426,1.81327715 0,1.20885135 0.604426,1.8132772 1.20885,1.2088513 1.208852,0.6044259 1.813278,0 1.208851,-0.6044259 1.208852,-1.2088513 m -11.4840902,-10.8796629 0,12.6929401" stroke="#333" stroke-width="2.2792022792022792" fill="none"></path></g><line x1="944.4444444444445" y1="500" x2="958.3333333333334" y2="500" stroke="#333" stroke-width="2.2792022792022792"></line><g transform="translate(-421.5299145299145,-211.82621082621083) scale(1.4245014245014245)"><path d="m 993, 499 -0.5625,-1.125 -1.6875,-0.5625 -1.6875,0 -1.6875,0.5625 -0.5625,1.125 0.5625,1.125 1.125,0.5625 2.8125,0.5625 1.125,0.5625 0.5625,1.125 0,0.5625 -0.5625,1.125 -1.6875,0.5625 -1.6875,0 -1.6875,-0.5625 -0.5625,-1.125 m -11.25,-10.125 0,11.8125 m 0,-11.8125 3.9375,0 1.6875,0.5625 1.125,1.125 0.5625,1.125 0.5625,1.6875 0,2.8125 -0.5625,1.6875 -0.5625,1.125 -1.125,1.125 -1.6875,0.5625 -3.9375,0" stroke="#333" stroke-width="2.2792022792022792" fill="none"></path></g><line x1="372.6925421768502" y1="74.17882229727246" x2="368.7141841198768" y2="60.871910494062206" stroke="#333" stroke-width="2.2792022792022792"></line><g transform="translate(-159.6125356125356,-19.95156695156695) scale(1.4245014245014245)"><path d="m 376, 47 -1.004085,-1.0040845 -1.004084,-0.5020423 -1.506127,0 -1.004085,0.5020423 -1.004084,1.0040845 -0.502043,1.50612689 0,1.00408458 0.502043,1.50612683 1.004084,1.0040846 1.004085,0.5020423 1.506127,0 1.004084,-0.5020423 1.004085,-1.0040846 m -17.57148,-9.0367612 0,10.5428881 m 0,-10.5428881 4.016338,10.5428881 m 4.016338,-10.5428881 -4.016338,10.5428881 m 4.016338,-10.5428881 0,10.5428881" stroke="#333" stroke-width="2.2792022792022792" fill="none"></path></g></g><g id="astrology-radix-circles"><circle cx="500" cy="500" r="222.22222222222223" fill="none" stroke="#333" stroke-width="2.849002849002849"></circle><circle cx="500" cy="500" r="444.44444444444446" fill="none" stroke="#333" stroke-width="2.849002849002849"></circle><circle cx="500" cy="500" r="388.8888888888889" fill="none" stroke="#333" stroke-width="2.849002849002849"></circle></g></g></g></svg>