<svg xmlns="http://www.w3.org/2000/svg" viewBox="0 0 75 75">
  <defs>
    <clipPath id="a">
      <path d="M37.5 0C16.79 0 0 16.79 0 37.5S16.79 75 37.5 75 75 58.21 75 37.5 58.21 0 37.5 0Zm0 0" />
    </clipPath>
    <clipPath id="b">
      <path d="M2.129 2.934h70.5v71.25h-70.5Zm0 0" />
    </clipPath>
  </defs>
  <g clip-path="url(#a)">
    <path fill="#ffde59" d="M-7.5-7.5h90v90h-90z" />
  </g>
  <g clip-path="url(#b)">
    <path d="M11.832 31.473a.245.245 0 0 1-.3.172 2.33 2.33 0 0 1-.36-.094c-2.203-.52-6.977-1.281-7.637.254-.207.457-.207.824-.031 1.074.437.601 1.883.586 2.402.523.14-.015.25.078.266.223.02.14-.078.254-.219.27-.219.03-2.168.203-2.86-.73-.296-.411-.296-.935-.03-1.583.44-1.012 2.042-1.39 4.746-1.121l.39.047c-1.695-.758-3.488-1.914-3.816-3.528v-.015c0-.047-.11-1.027.566-1.457.614-.38 1.54-.156 2.875.68.11.082.156.222.078.347-.078.113-.218.16-.347.082-1.098-.699-1.946-.933-2.356-.68-.375.235-.344.883-.344.965.532 2.547 5.512 3.938 6.567 4.192.125.031.187.047.203.047.156.062.238.187.207.332Zm2.2-18.145a3.244 3.244 0 0 1 3.706.555 3.312 3.312 0 0 1 .14 4.664 3.26 3.26 0 0 1-4.632.144 3.336 3.336 0 0 1-.789-3.671c-.5.097-1.05.046-1.523-.063-1.29-.332-1.758.125-1.774.14a.3.3 0 0 1-.426.036.307.307 0 0 1-.03-.43c.03-.031.69-.773 2.37-.332.582.16 1.414.176 1.903-.238.03-.031.062-.078.093-.11.032-.046.078-.078.11-.109.316-.46.316-1.187-.016-2.121-.078-.254-.469-1.55.082-2.04.125-.112.313-.112.422.017.11.125.11.316-.016.425-.156.176-.078.871.094 1.39.27.731.332 1.282.285 1.743Zm-.364.98c-.031.032-.063.079-.094.11l-.015.016c-.047.05-.094.097-.125.129a2.727 2.727 0 0 0 .218 3.683 2.683 2.683 0 0 0 3.79-.11c1.003-1.073.956-2.8-.114-3.812a2.66 2.66 0 0 0-3.66-.015Zm20.41-3.417a.261.261 0 0 1-.312.238c-3.836-.457-7.086 1.691-7.118 1.723-.03.015-.062.035-.093.05-.114.032-.223-.015-.301-.113a.301.301 0 0 1 .078-.394c.063-.047.754-.508 1.855-.95l-1.43-6.234c-1.195.082-2.01-.031-2.073-.031-.157-.016-.254-.157-.235-.317.016-.156.156-.254.313-.234.031 0 3.894.504 7.133-1.617.125-.078.3-.047.378.082.079.125.047.3-.078.379-.504.316-1.008.586-1.511.804l1.445 6.25c.55-.03 1.117-.015 1.715.047.14.031.25.176.234.317Zm-2.512-.317L30.168 4.5c-.473.176-.93.316-1.383.41a10.55 10.55 0 0 1-1.46.254l1.398 6.074c.8-.285 1.757-.55 2.843-.664Zm18.805-3.828c-.078.078-.187.113-.281.078-.047-.015-.094-.031-.14-.078-.032-.031-2.579-2.469-6.255-2.101a2.167 2.167 0 0 1 .864 2.246 2.108 2.108 0 0 1-2.563 1.582 2.126 2.126 0 0 1-1.57-2.578 2.134 2.134 0 0 1 1.949-1.649c.016 0 .031-.016.031-.016 4.606-1.168 7.809 1.93 7.934 2.06.16.14.16.331.031.456ZM42.848 4.91a1.519 1.519 0 0 0-1.825 1.14 1.53 1.53 0 0 0 1.133 1.837 1.515 1.515 0 0 0 1.82-1.14c.208-.806-.312-1.645-1.128-1.837Zm5.5 6.692c-.016.02-.035.02-.067.02-1.492.378-2.843.316-3.988.03-2.375-.57-3.867-2.011-3.961-2.09a.289.289 0 0 1 0-.425.283.283 0 0 1 .426 0c.031.031 2.465 2.37 6 2.117a2.157 2.157 0 0 1-.863-2.246c.265-1.137 1.414-1.867 2.562-1.582a2.126 2.126 0 0 1 1.57 2.578 2.082 2.082 0 0 1-1.68 1.598Zm1.113-1.754a1.527 1.527 0 0 0-1.129-1.836 1.517 1.517 0 0 0-1.824 1.14 1.529 1.529 0 0 0 1.133 1.836c.8.188 1.632-.316 1.82-1.14Zm9.035 12.765c-.629-.11-1.351-.41-1.809-.87a1.6 1.6 0 0 1-.406-.634c-.11-.347-.125-.882.453-1.468.899-.934 2.106-1.282 3.286-1.614.976-.285 1.886-.554 2.609-1.109.598-.473.879-1.219.738-2.023-.156-.918-.785-1.711-1.617-2.008-.504-.176-1.102-.067-1.684.297-.77.492-1.351 1.363-1.43 2.105 0 .031-.015.063-.03.094a2.088 2.088 0 0 1-.583 1.789 2.087 2.087 0 0 1-2.953.015 2.125 2.125 0 0 1-.015-2.972 2.087 2.087 0 0 1 2.953-.016c.078.078.16.172.222.25.282-.68.833-1.344 1.508-1.785.739-.476 1.524-.601 2.2-.363 1.035.363 1.82 1.344 2.011 2.48.172 1.031-.191 1.996-.976 2.614-.817.632-1.82.933-2.813 1.218-1.144.332-2.23.649-3.015 1.453-.297.301-.395.586-.313.872.172.519 1.02.964 1.742 1.09a.327.327 0 0 1 .25.347c-.015.145-.156.254-.328.238Zm-.894-8.004a1.48 1.48 0 0 0-2.106 0 1.507 1.507 0 0 0 0 2.121 1.488 1.488 0 0 0 2.106 0 1.507 1.507 0 0 0 0-2.12Zm7.476 18.684c-.219.047-.77.219-1.523.965-.11.11-.297.125-.407.031a.343.343 0 0 1-.097-.16c-.031-.094 0-.203.082-.285.515-.52.972-.805 1.316-.965-.894-.664-1.207-1.281-1.238-1.328-.016-.016-.016-.047-.016-.063a.31.31 0 0 1 .157-.347c.14-.078.328-.016.406.125.02.015.394.714 1.48 1.394a72.227 72.227 0 0 0 3.235-.73c2.246-.582 3.035-.98 3.3-1.168.063-.047.063-.145.016-.207-.863-.774-1.762-.856-1.762-.856-.062 0-1.222.27-1.945.446-1.7.44-3.379.757-3.394.773-.157.031-.317-.063-.348-.219v-.02a.302.302 0 0 1 .238-.347c.016 0 1.649-.316 3.313-.742 2.25-.586 3.035-.98 3.3-1.172.063-.047.063-.14.016-.203-.879-.793-1.742-.856-1.758-.856-.066 0-2.86.711-5.297 1.172a.29.29 0 0 1-.343-.222c-.051-.176.078-.332.25-.364 6.129-1.156 6.789-2.027 6.867-2.168a.295.295 0 0 1 .062-.363c.125-.11.313-.11.422.016.098.093.176.285.098.523-.051.172-.16.504-1.258.996.422.156.988.442 1.523.965.157.156.22.363.157.55-.063.224-.282.493-1.067.825.422.16.989.441 1.524.965.156.16.218.363.156.555-.078.285-.41.632-1.871 1.136.441.176.691.383.785.633a.55.55 0 0 1-.016.43c-.109.285-.972 2.086-4.289 1.137a8.778 8.778 0 0 1-2.074-.852Zm4.48-1.047c-.285.082-.581.16-.913.254-.973.254-1.946.477-2.59.602.343.16.738.3 1.175.441 2.407.7 3.239-.234 3.489-.633.062-.094.031-.219-.063-.265-.172-.098-.484-.239-1.097-.399Zm-6.41 17.246a.3.3 0 0 0 .375-.191l2.532-7.781c.047-.16-.032-.336-.192-.383-.156-.047-.328.031-.375.191l-2.531 7.781c-.062.16.031.317.191.383Zm2.262.82c.156.047.328-.03.375-.187l.63-1.914c.565.633 1.554 1.266 2.812.836 1.62-.535 1.84-2.2 1.73-2.988 0-.016-.016-.047-.016-.063-.285-.793-.754-1.316-1.398-1.566-.676-.27-1.383-.176-1.871-.032l.707-2.168c.047-.16-.031-.332-.188-.378-.156-.051-.332.03-.379.187l-.894 2.77c-.031.109 0 .238.094.316a.32.32 0 0 0 .332.047c.015 0 1.082-.54 1.992-.176.473.191.82.586 1.055 1.188.03.254.125 1.82-1.32 2.308-1.54.508-2.419-1.012-2.466-1.074-.066-.11-.175-.156-.3-.156a.287.287 0 0 0-.25.203l-.801 2.484c-.098.14 0 .317.156.364ZM52.367 60.962l1.95-.191c.156-.016.296-.157.28-.317 0-.172-.156-.3-.327-.285l-1.258.129c.425-.668.894-1.031 1.367-1.078.598-.063 1.055.41 1.07.41.016.02 1.192 1.25 2.496 2.453 2.407 2.215 3.114 2.406 3.504 2.293a.576.576 0 0 0 .38-.426c.14-.742.077-1.36-.032-1.804.707.476 1.05.507 1.27.445a.574.574 0 0 0 .378-.43c.14-.742.078-1.36-.015-1.8.988.663 1.351.57 1.508.519a.514.514 0 0 0 .378-.363c.032-.157-.062-.332-.222-.364a.292.292 0 0 0-.328.145c-.157.016-1.243-.082-5.563-4.621-.11-.125-.297-.125-.426-.016l-.015.016c-.11.11-.11.3 0 .41 1.715 1.805 3.836 3.781 3.867 3.828 0 0 .406.746.266 1.852-.016.144-.157.222-.297.16-.364-.176-1.133-.68-2.672-2.106-1.258-1.172-2.418-2.37-2.434-2.386a.295.295 0 0 0-.426-.016l-.015.016c-.11.109-.11.3 0 .41.015.015 1.195 1.25 2.496 2.453.55.504 1.414 1.344 1.45 1.406 0 0 .421.758.25 1.914-.017.11-.126.176-.22.125-.332-.14-1.101-.617-2.734-2.117-1.258-1.172-2.422-2.375-2.422-2.39-.031-.032-.66-.68-1.555-.602-.488.047-.957.316-1.382.793-.079.094-.172.203-.25.316l.093-1.41a.283.283 0 0 0-.285-.316.342.342 0 0 0-.25.097.259.259 0 0 0-.078.188l-.156 2.39a.29.29 0 0 0 .187.301c.063-.031.11-.031.172-.031Zm-9.129 13.035c.078.125.223.188.364.125l3.394-1.266c.156-.046.234-.238.172-.394a.301.301 0 0 0-.395-.176l-2.89 1.078 1.902-5.175 2.137.792a.299.299 0 0 0 .39-.175.3.3 0 0 0-.171-.395l-2.137-.789 1.164-3.18a.308.308 0 0 0-.172-.398c-.082-.031-.16-.016-.238.016a.348.348 0 0 0-.156.175l-1.164 3.18-2.168-.809c-.079-.03-.157-.015-.235.016a.302.302 0 0 0-.156.176.304.304 0 0 0 .172.394l2.168.809-1.84 5.047-1.508-2.613a.304.304 0 0 0-.39-.125c-.016 0-.016.015-.032.015a.303.303 0 0 0-.11.41ZM25.672 63.81a1.809 1.809 0 0 1 1.492.015c.754.332 1.164.852 1.367 1.469.16-.172.317-.332.457-.488 1.067-1.063 1.887-1.282 3.239-.934.015 0 .03.016.046.016.141.062.22.203.172.363a.317.317 0 0 1-.363.223c-1.145-.301-1.742-.13-2.668.773-.16.16-.316.317-.473.508-.093.094-.171.187-.265.285.078 1.106-.285 2.402-.582 3.48-.125.426-.239.836-.301 1.168-.11.586-.016.81.062.856.13.062.52-.047 1.008-.523 1.067-1.06 1.805-1.993 2.309-2.926.078-.125.234-.192.363-.14.14.062.219.202.188.347-.078.394-.172.804-.27 1.203-.172.773-.36 1.598-.5 2.387-.191 1.14.078 1.265.598 1.406.156.05.25.207.203.383a.302.302 0 0 1-.379.203c-.973-.27-1.254-.836-1.035-2.102.11-.68.265-1.347.406-2.011-.406.539-.91 1.093-1.492 1.68-.629.632-1.27.85-1.711.616-.281-.16-.566-.539-.379-1.504.078-.363.191-.777.316-1.218.25-.887.52-1.867.567-2.739-.41.348-.852.633-1.383.73-.707.126-1.46-.128-1.902-.647a1.553 1.553 0 0 1-.266-1.583c.234-.601.66-1.078 1.176-1.296Zm-.582 1.5c-.156.46 0 .793.176.996.297.351.832.539 1.336.445.53-.094 1.003-.477 1.445-.918-.113-.633-.426-1.156-1.102-1.457-.343-.14-.691-.156-1.02-.016-.378.16-.675.508-.835.95Zm-13.856-7.293a.309.309 0 0 0-.41.129c-.031.062-.094.156-.156.253-.316.504-.738 1.184-.379 1.692.285.394.914.426 1.414.441.176 0 .332.016.426.032.25.05.41.097.504.128l-.031.032c-.207.207-.567.601-.286 1.105.188.348.754.445 1.684.57.297.047.738.094.848.16 0 .047-.078.172-.125.25-.13.223-.301.493-.239.825.11.68 1.196.824 2.23.949.333.047.661.078.837.14a.303.303 0 0 0 .172-.581c-.22-.067-.551-.114-.926-.16-.41-.047-.883-.11-1.242-.204-.442-.129-.473-.238-.473-.238-.016-.113.078-.27.156-.414.145-.25.395-.664 0-1.027-.172-.157-.515-.22-1.16-.317-.379-.047-1.098-.16-1.238-.285-.047-.078-.016-.14.187-.379.141-.156.348-.363.266-.648-.094-.3-.457-.426-1.055-.54-.14-.03-.328-.03-.52-.046-.312-.016-.847-.031-.956-.188-.125-.16.265-.777.41-1.015.062-.11.125-.203.172-.282a.316.316 0 0 0-.063-.367c0 .016-.031 0-.047-.015Zm3.63 4.543Zm-.977-7.547c-.14-.078-.328-.016-.407.125-.03.062-.093.16-.156.254-.316.507-.738 1.187-.379 1.691.285.398.91.43 1.414.445.172 0 .332.016.426.032a3.7 3.7 0 0 1 .5.125l-.031.03c-.203.208-.563.602-.281 1.11.187.348.754.442 1.68.57.3.047.738.094.85.157 0 .047-.077.176-.128.254-.125.222-.297.492-.234.824.109.68 1.195.82 2.23.95.332.046.66.077.832.14a.308.308 0 0 0 .379-.207.31.31 0 0 0-.203-.38c-.223-.062-.55-.109-.93-.155a9.741 9.741 0 0 1-1.238-.207c-.441-.125-.473-.239-.488-.239-.016-.11.078-.27.156-.41.14-.254.394-.664 0-1.027-.172-.16-.52-.223-1.164-.317-.375-.047-1.098-.16-1.238-.285-.047-.078-.016-.144.187-.379.14-.16.344-.363.266-.648-.094-.3-.453-.43-1.051-.54-.14-.03-.332-.03-.52-.046-.312-.016-.847-.031-.956-.188-.125-.16.265-.777.41-1.015.062-.11.125-.203.172-.282a.316.316 0 0 0-.063-.367c0 .016-.031 0-.047-.015ZM5.922 42.547l.379 1.598c-1.95.27-3.535-.696-3.649-.762a.282.282 0 0 0-.406.097.289.289 0 0 0 .094.41c.031.016 1.87 1.141 4.101.825l.407 1.754c-2.137.71-3.297 2.547-3.313 2.578a.288.288 0 0 0 .094.41c.14.098.328.05.406-.094 0-.015.676-1.074 1.918-1.82a4.637 4.637 0 0 1 1.024-.473l.39 1.66c.031.16.203.27.363.223a.296.296 0 0 0 .22-.363l-.395-1.68c1.226-.25 2.53-.047 3.898.668.14.078.328.016.41-.129a.312.312 0 0 0 .032-.203.322.322 0 0 0-.16-.207c-1.68-.855-3.11-.95-4.305-.695l-.39-1.727c1.175-.3 2.417-1.027 3.55-2.547a.256.256 0 0 0 .047-.254.297.297 0 0 0-.11-.171.307.307 0 0 0-.425.062c-1.02 1.375-2.137 2.059-3.188 2.324l-.379-1.613a.294.294 0 0 0-.363-.219.274.274 0 0 0-.25.348Zm0 0" />
  </g>
</svg>
